<svg xmlns="http://www.w3.org/2000/svg" viewBox="0 0 31.24 31.38"><defs><style>.cls-1{fill:#fff;fill-rule:evenodd;}</style></defs><g id="Capa_2" data-name="Capa 2"><g id="Capa_1-2" data-name="Capa 1"><g id="WA_Logo" data-name="WA Logo"><path class="cls-1" d="M26.69,4.56A15.55,15.55,0,0,0,2.21,23.32L0,31.38l8.25-2.16a15.48,15.48,0,0,0,7.43,1.89h0a15.56,15.56,0,0,0,11-26.55Zm-11,23.92h0a12.86,12.86,0,0,1-6.58-1.8l-.47-.28-4.9,1.28L5,22.92l-.31-.49a12.94,12.94,0,0,1,11-19.8,12.93,12.93,0,0,1,0,25.85Zm7.1-9.68c-.39-.19-2.3-1.13-2.66-1.26s-.62-.19-.87.19S18.24,19,18,19.26s-.45.29-.84.09a10.42,10.42,0,0,1-3.12-1.92,11.55,11.55,0,0,1-2.16-2.69c-.23-.39,0-.6.17-.8s.38-.45.58-.68a2.88,2.88,0,0,0,.39-.65.73.73,0,0,0,0-.68c-.1-.19-.88-2.1-1.2-2.88s-.64-.66-.88-.67h-.74a1.42,1.42,0,0,0-1,.48,4.38,4.38,0,0,0-1.36,3.24,7.48,7.48,0,0,0,1.59,4c.19.26,2.74,4.19,6.64,5.87a22.48,22.48,0,0,0,2.21.82,5.41,5.41,0,0,0,2.45.15,4,4,0,0,0,2.62-1.84,3.19,3.19,0,0,0,.23-1.85C23.42,19.1,23.16,19,22.78,18.8Z"/></g></g></g></svg>