<svg xmlns="http://www.w3.org/2000/svg" viewBox="0 0 220.79 113"><defs><style>.cls-1{isolation:isolate;}.cls-2,.cls-4{fill:#fff;}.cls-3{mix-blend-mode:soft-light;}.cls-4{mix-blend-mode:overlay;}</style></defs><g class="cls-1"><g id="Capa_2" data-name="Capa 2"><g id="Capa_1-2" data-name="Capa 1"><path class="cls-2" d="M82,98.76a86.06,86.06,0,0,0,8.84-1.82,44.55,44.55,0,0,0,5.56-1.57c1.59-.62,4-1.68,4.61-3.42a1.91,1.91,0,0,0-.74-2.55c-1-.5-2.21.2-3.08.69a34.93,34.93,0,0,1-4,2,69.45,69.45,0,0,1-8.47,2.69c-5.21,1.37-4.39-1.1-3.29-1.37,1.82-.46,3.62-.79,5.39-1.42a58.6,58.6,0,0,0,7.06-3.26l.65-.33c.83-.42,1.68-.81,2.51-1.24s2-1.15,1.93-2.22-1.41-1.52-2.39-1.45a2.64,2.64,0,0,0-.56.11,9.8,9.8,0,0,0-1.47.68l-1.68.83-.64.32a70.06,70.06,0,0,1-6.76,3,24.81,24.81,0,0,1-5.34,1.37.87.87,0,0,1-.45-1.66A30.7,30.7,0,0,0,83,86.39v-.08a9.88,9.88,0,0,0,3.16-2.6c.48-.73.48-1.34,0-1.75l-.07,0a1.6,1.6,0,0,0-1.26-.26,18.93,18.93,0,0,0-2,.45v0C73.38,84.85,59.94,94,38.14,85.27,14.28,75.67,3,29.58,34,14.5c24-11.7,42.12,4.62,49,12.56,0-.9,0-1.69,0-2.37,0-.89,0-1.6,0-2.08,0-1,0-1.81,1-2.23a1.66,1.66,0,0,1,1.49.12,12.85,12.85,0,0,0,1.64,0,7.39,7.39,0,0,1,.78,0l2.61.09A79.11,79.11,0,0,0,69.55,4.76C59.32-.36,47-1,35.87,1.21,26.3,3.13,17.24,7.13,10.92,14.78,5,21.91,1.88,31,.62,40A66.06,66.06,0,0,0,19.35,95.55c21.4,22,57.34,17.83,70.5,15.64a26.56,26.56,0,0,0,7.23-2c.83-.41,1.91-1,2.2-2,.41-1.36-1.19-2.22-2.37-2a53.34,53.34,0,0,0-5.72,1.48,58.9,58.9,0,0,1-7.85,1.86c-.94.12-2.33.22-3-.65-.93-1.28,1.37-1.66,2.11-1.81.94-.2,1.88-.44,2.81-.69,4.2-1.12,8.4-2.37,12.51-3.82a4.27,4.27,0,0,0,2.48-1.58,1.55,1.55,0,0,0-.64-2.25c-.8-.47-1.65.19-2.4.48s-1.58.58-2.38.84A75.88,75.88,0,0,1,83,102.14c-1.11.17-2.6-.06-3-1.31S80.86,98.92,82,98.76Z"/><path class="cls-2" d="M132.31,92.87A2.56,2.56,0,0,1,133.5,91a2.25,2.25,0,0,1,1.07-.31,6.92,6.92,0,0,1-.8-.63,3.26,3.26,0,0,1-1.08-2.7,2.9,2.9,0,0,1,1.5-2.2,2.62,2.62,0,0,1,.83-.32,2.88,2.88,0,0,1-.92-1.26,2.4,2.4,0,0,1-.12-.44L110,55.37s14-1.92,18.93-13.44c1.11-4.25,1.55-9.14-.68-13.13-3.37-6-9.78-6.07-15.81-6.16q-8.4-.12-16.8-.29l-1.25,0q-2.24,0-4.47-.12L88,22.13c-.58,0-2.76.23-3.22-.23,0,0,0,1.7-.06,4.55,0,1.45,0,3.2,0,5.18,0,13.32-.06,36.9-.06,48.4h0a3.28,3.28,0,0,1,2.53.57,2.6,2.6,0,0,1,1.07,2.47A5.51,5.51,0,0,1,86,86.38c2-.77,3.82-1.68,5.48-2.49L93,83.14l.77-.38.34-.18a5.87,5.87,0,0,1,2.3-.78,5.05,5.05,0,0,1,1.17,0L97,56.6,134.65,99a2.46,2.46,0,0,1,1.29-1.82v0C133.42,96.26,132.1,94.69,132.31,92.87ZM96.71,52.76v-28c9.75-.92,22.88,1.44,20.77,14.52a16.21,16.21,0,0,1-11.16,12.89C105.73,52.37,96.71,53.76,96.71,52.76Z"/><circle class="cls-2" cx="142.38" cy="19.43" r="10.42"/><path class="cls-2" d="M147.87,32.33V78.09l-.09,0-.47-.12A4.13,4.13,0,0,0,144,78a2.61,2.61,0,0,0-1.39,2.38c-1.14-.09-2.17-.2-3.13-.31-.2,0-.42-.06-.65-.1a7.33,7.33,0,0,0-1.7-.18V32.33Z"/><path class="cls-2" d="M192.88,33a2.24,2.24,0,0,1,1.58-1.82c4.13-1.3,14.17-5.72,14.17-17.92,0-11.85-14.5-13.43-23.45-13.11-7.54.27-15.11.15-22.67.11-.3,0-4.42-.24-4.49,0-.25.75-.05,62.35,0,73A1.76,1.76,0,0,0,159.6,75c4.5.46,17.8,1.45,29.71-1.3-.46.11-1.1.77-1.52,1s-1.16.72-1.76,1.06a37.19,37.19,0,0,1-4.16,2,44.74,44.74,0,0,1-11.08,3,61.69,61.69,0,0,1-15.12.15c-1.8-.19-3.6-.44-5.38-.76q-1.42-.24-2.85-.54c-.76-.16-1.85-.66-2.6-.24a.89.89,0,0,0,.28,1.71c1.42.19,2.85.34,4.27.5a8.09,8.09,0,0,1,2.89.62,2.56,2.56,0,0,1-1.26.28c-1.23,0-2.5-.12-3.74-.18s-2.66-.16-4-.27-2.65-.23-4-.38a11.92,11.92,0,0,0-2.22-.27c-.74,0-1.78.67-1.45,1.57.23.64,1.08,1,1.66,1.13a85,85,0,0,0,11,2.25,2.48,2.48,0,0,1,2.18,1.33.9.9,0,0,1,.13.42c0,.69-1.18.68-1.62.68a40.46,40.46,0,0,1-6.4-.63,26.73,26.73,0,0,1-6.43-1.56,1,1,0,0,0-1.11-.06,1.33,1.33,0,0,0-.13,2.28,8,8,0,0,0,3.64,1.62c2.36.55,4.75,1,7.13,1.46l2.81.51c.94.16,1.59.25,2.13,1.16a1.12,1.12,0,0,1,.18.42c.06.37-.21.58-.53.68-1.87.55-4.33-.06-6.21-.35q-3.13-.49-6.22-1.18c-.63-.14-1.28-.24-1.9-.42-.45-.13-1.14-.61-1.59-.35a.89.89,0,0,0-.39.65c-.16,1.39,1.63,2.26,2.67,2.63A27.86,27.86,0,0,0,143.15,97c1.87.18,3.74.25,5.61.34a2.69,2.69,0,0,1,.7.1,1.67,1.67,0,0,1,.78.75,1.47,1.47,0,0,1,.23.6c.07.6-.44.89-.95,1a11.73,11.73,0,0,1-3.54-.2q-1.75-.21-3.51-.48c-.95-.13-1.88-.32-2.82-.45a6.22,6.22,0,0,0-2.61-.09c-1.46.49-.52,1.94.26,2.47,1.58,1.1,3.77,1.37,5.63,1.56,8.23.82,27.29,1.23,41.28-7.27A55.84,55.84,0,0,0,202,78.67a38.08,38.08,0,0,0,4.11-8.16,31.54,31.54,0,0,0,1.16-4.15c.28-1.35.17-3,.88-4.2,2.11-3.52,2.41-7.64,2.09-11.67a15.55,15.55,0,0,0-2.59-7.87c-2.83-4-7.68-5.54-12.14-6.91l-1.1-.34A2.19,2.19,0,0,1,192.88,33ZM171.32,3.66c9.88-.34,28.83.21,24.21,15.43a18.1,18.1,0,0,1-14.18,13c-.62.13-10,1-10,.15Zm0,67.75V38A48.41,48.41,0,0,1,180,37.3c7.64.19,14.58,3.34,16.88,11.12,2.73,9.25-4.12,18.38-12.69,21.38C183.42,70.06,171.32,72.46,171.32,71.41Z"/><g class="cls-3"><path class="cls-4" d="M90.67,20.58l-2.61-.09a7.39,7.39,0,0,0-.78,0,12.85,12.85,0,0,1-1.64,0,1.66,1.66,0,0,0-1.49-.12c-1,.42-1,1.26-1,2.23,0,.48,0,1.19,0,2.08,0,.68,0,1.47,0,2.37-6.92-7.94-25-24.26-49-12.56-19.31,9.39-22.22,30.82-15.91,48a200,200,0,0,1-18-9.78A64.63,64.63,0,0,1,.62,40C1.88,31,5,21.91,10.92,14.78,17.24,7.13,26.3,3.13,35.87,1.21,47-1,59.32-.36,69.55,4.76A79.11,79.11,0,0,1,90.67,20.58Z"/><path class="cls-4" d="M128.26,28.8c-3.37-6-9.78-6.07-15.81-6.16q-8.4-.12-16.8-.29l-1.25,0q-2.24,0-4.47-.12L88,22.13c-.58,0-2.76.23-3.22-.23,0,0,0,1.7-.06,4.55,0,1.45,0,3.2,0,5.18,0,11.84,0,31.8-.06,44.16,4.27-.29,8.53-.69,12.74-1.18l-.4-18,14.28,16.08c4-.65,8-1.36,11.85-2.13L110,55.37s14-1.92,18.93-13.44C130.05,37.68,130.49,32.79,128.26,28.8ZM117.48,39.3a16.21,16.21,0,0,1-11.16,12.89c-.59.18-9.61,1.57-9.61.57v-28C106.46,23.86,119.59,26.22,117.48,39.3Z"/><path class="cls-4" d="M147.87,32.33V64.69c-3.43.94-7,1.87-10.7,2.76V32.33Z"/><path class="cls-4" d="M210.25,50.64A39.39,39.39,0,0,0,197,48.76c2.47,9.13-4.31,18.08-12.78,21-.76.26-12.86,2.66-12.86,1.61V57.27c-4,1.44-8.44,2.95-13.35,4.47,0,5.27,0,9.4,0,11.53A1.76,1.76,0,0,0,159.6,75c4.5.46,17.8,1.45,29.72-1.3-.48.11-1.11.77-1.53,1s-1.16.72-1.75,1.06a38.2,38.2,0,0,1-4.17,2,44.74,44.74,0,0,1-11.08,3,61.69,61.69,0,0,1-15.12.15c-1.8-.19-3.59-.45-5.38-.76q-1.42-.24-2.85-.54c-.77-.16-1.85-.66-2.6-.24a.89.89,0,0,0,.28,1.71c1.42.19,2.85.34,4.27.5a8.09,8.09,0,0,1,2.89.62,2.59,2.59,0,0,1-1.26.28c-1.23,0-2.5-.12-3.74-.19s-2.66-.15-4-.26-2.65-.23-4-.38a11.82,11.82,0,0,0-2.22-.27c-.74,0-1.78.67-1.45,1.57.23.64,1.08,1,1.66,1.13a85,85,0,0,0,11,2.25,2.48,2.48,0,0,1,2.18,1.33.9.9,0,0,1,.13.42c0,.69-1.18.68-1.62.68a40.34,40.34,0,0,1-6.4-.63,26.73,26.73,0,0,1-6.43-1.56c-.4-.17-.69-.31-1.11-.06a1.33,1.33,0,0,0-.13,2.28,8,8,0,0,0,3.64,1.62c2.36.56,4.75,1,7.14,1.46.93.18,1.86.35,2.8.51s1.59.25,2.13,1.16a1.12,1.12,0,0,1,.18.42c.06.37-.21.58-.53.68-1.87.55-4.33-.06-6.21-.35q-3.13-.49-6.22-1.18c-.63-.14-1.28-.24-1.9-.42-.45-.13-1.14-.61-1.59-.35a.9.9,0,0,0-.39.66c-.16,1.38,1.63,2.25,2.67,2.62A27.34,27.34,0,0,0,143.15,97c1.87.19,3.74.26,5.61.35a2.69,2.69,0,0,1,.7.1,1.67,1.67,0,0,1,.78.75,1.47,1.47,0,0,1,.23.6c.07.6-.45.89-1,1a11.6,11.6,0,0,1-3.52-.2c-1.18-.14-2.35-.3-3.53-.48-.94-.13-1.87-.32-2.81-.45a6.06,6.06,0,0,0-2.61-.09c-1.46.49-.52,1.94.26,2.47,1.58,1.1,3.77,1.37,5.63,1.56,8.23.82,27.29,1.23,41.28-7.27A55.62,55.62,0,0,0,202,78.67a38.08,38.08,0,0,0,4.11-8.16,31.54,31.54,0,0,0,1.16-4.15c.28-1.35.17-3,.88-4.2C210.24,58.68,210.56,54.62,210.25,50.64Z"/></g><path class="cls-2" d="M197.44,103.18h-5.93l-.58,3.32h5.46l-.14.82h-5.47l-.6,3.43h6l-.14.86h-7l1.65-9.29h6.87Z"/><path class="cls-2" d="M198.6,111.33a.55.55,0,0,1-.56.43.47.47,0,0,1-.5-.56.54.54,0,0,1,.55-.41A.47.47,0,0,1,198.6,111.33Z"/><path class="cls-2" d="M208.79,103.18l-.5.71a5.93,5.93,0,0,0-3.1-.88c-1.27,0-2.44.48-2.65,1.69a.87.87,0,0,0,.3.91,5.63,5.63,0,0,0,1.75.71,15.92,15.92,0,0,1,2.38.77,1.69,1.69,0,0,1,1.09,1.45,3.29,3.29,0,0,1,0,.68,2.65,2.65,0,0,1-1.33,1.87,5.13,5.13,0,0,1-2.67.65,6.76,6.76,0,0,1-3.94-1.17l.53-.69a6.3,6.3,0,0,0,3.55,1c1.34,0,2.65-.53,2.85-1.7a1.08,1.08,0,0,0-.41-1.25,2.15,2.15,0,0,0-.57-.27,2.72,2.72,0,0,0-.38-.14l-.91-.26-.45-.12a7.26,7.26,0,0,1-2.34-1,1.47,1.47,0,0,1-.45-1.49c.33-1.79,2-2.53,3.8-2.53A6.22,6.22,0,0,1,208.79,103.18Z"/><path class="cls-2" d="M210.21,111.33a.55.55,0,0,1-.56.43.48.48,0,0,1-.51-.56.55.55,0,0,1,.56-.41A.47.47,0,0,1,210.21,111.33Z"/><path class="cls-2" d="M220.65,103.18h-5.93l-.59,3.32h5.47l-.15.82H214l-.6,3.43h6.05l-.15.86h-7l1.64-9.29h6.87Z"/></g></g></g></svg>