<svg xmlns="http://www.w3.org/2000/svg" viewBox="0 0 299.7 60.93"><defs><style>.cls-1{fill:#fff;}</style></defs><g id="Capa_2" data-name="Capa 2"><g id="Capa_1-2" data-name="Capa 1"><path class="cls-1" d="M238,48c-10.25,0-18.75-5.76-21.71-14.69-2.72-8.24-1-15.82,4.2-22.6A26.35,26.35,0,0,1,238.55.23c9.12-1.23,18.63,2.54,23.27,11.41,3.55,6.79,3.41,13.79.16,20.61-4.25,8.87-11.44,14-21.14,15.49l-.37,0L238,48m14.51-25.06A11.24,11.24,0,0,0,239.9,11.66a14.2,14.2,0,0,0-11.54,10.43,11.31,11.31,0,0,0,12.41,14.18,13.88,13.88,0,0,0,11.75-13.38"/><path class="cls-1" d="M.35,43.09C1.74,29.93,3.11,16.85,4.49,3.69c.76,0,1.49-.11,2.22-.12L20.5,3.5a26.14,26.14,0,0,1,9.6,1.43c6.45,2.48,10.21,8.12,10.28,15.47A21.85,21.85,0,0,1,21,42.89a26.52,26.52,0,0,1-3.34.23c-5.56,0-11.11,0-16.67,0-.19,0-.37,0-.68,0m10.34-8.9c3.25,0,6.35.11,9.44,0a10.69,10.69,0,0,0,6.13-2.44,12.11,12.11,0,0,0,4.56-10.42c-.18-5.22-2.94-8.18-8.08-8.73-2.64-.28-5.33-.14-8-.18H13c-.77,7.32-1.53,14.53-2.3,21.82"/><path class="cls-1" d="M89.83,43.12l5.72-10.85q7.33-14,14.67-27.92a1.37,1.37,0,0,1,1.42-.87c2.92,0,5.84,0,8.76,0a.87.87,0,0,1,1,.69q6.06,19.16,12.15,38.29c0,.17.09.35.15.6h-10c-.55-1.78-1.12-3.58-1.64-5.4a.84.84,0,0,0-1-.73q-8.67,0-17.33,0a1,1,0,0,0-1.07.66q-1.23,2.44-2.55,4.86c-.15.28-.5.63-.76.64-3.13,0-6.26,0-9.57,0m25-28.73c-2.64,5-5.14,9.83-7.71,14.73h12.22c-1.5-4.88-3-9.67-4.51-14.73"/><path class="cls-1" d="M299.56,16h-9.11c-.38-3.18-3.17-5.17-7.41-4.5a10.52,10.52,0,0,0-4,1.58c-1.81,1.2-1.63,3,.35,3.9s3.81,1.29,5.71,1.94c2.81,1,5.7,1.74,8.4,2.95,3.23,1.44,5.35,4,5.52,7.66a12,12,0,0,1-5.24,10.83,21.67,21.67,0,0,1-20.17,1.66,12.61,12.61,0,0,1-7.41-11.4,13.49,13.49,0,0,1,.08-1.36h9.27c.06.29.13.59.19.89a6.12,6.12,0,0,0,3.62,4.55,9.86,9.86,0,0,0,7.45.23,5.08,5.08,0,0,0,2-1.4,2.37,2.37,0,0,0-.59-3.88,19.94,19.94,0,0,0-4.32-1.64c-3.47-.95-7-1.67-10.22-3.38-4.14-2.2-5.9-5.32-5.35-9.7a11.51,11.51,0,0,1,3.36-6.7A18.15,18.15,0,0,1,283.5,2.94a17.11,17.11,0,0,1,9,1.29,11.59,11.59,0,0,1,7.17,10.28,5.77,5.77,0,0,1,0,.83,6.06,6.06,0,0,1-.12.7"/><path class="cls-1" d="M67.27,29.23c.93,5.77,5.56,6.67,9.36,6.2a8,8,0,0,0,3-1c2.23-1.35,2.16-4-.23-5C77.29,28.47,75,28,72.72,27.27a55,55,0,0,1-7-2.49c-7.24-3.52-6.71-10-3.91-14.43a14.94,14.94,0,0,1,8-6.16c5.13-1.84,10.3-2.11,15.26.45A11.23,11.23,0,0,1,91.42,15.3a7.05,7.05,0,0,1-.07.71h-9.2c-1-3.84-4.07-5.45-8.4-4.28a9.15,9.15,0,0,0-3.21,1.57c-1.49,1.17-1.29,2.9.44,3.63,2.1.89,4.33,1.47,6.5,2.2a65.61,65.61,0,0,1,7.19,2.49c6.34,3,8,9.34,4.21,15.24a14.64,14.64,0,0,1-9.45,6.27c-5,1.15-10,1.12-14.59-1.34S57.93,35.28,57.94,30c0-.43,0-.79.63-.78,2.88,0,5.76,0,8.7,0"/><path class="cls-1" d="M136.84,3.55h9.35c-.14,1.4-.27,2.78-.4,4.15-.58,5.71-1.21,11.42-1.72,17.13a11.81,11.81,0,0,0,.92,5.74,7.4,7.4,0,0,0,8.16,4.34c4.44-.57,7-3.29,8.61-7.28,1-2.67,1.17-5.5,1.46-8.31.54-5,1-9.93,1.56-14.9,0-.28.11-.55.16-.87h9.44c-.15,1.57-.29,3.1-.45,4.62-.54,5.1-1,10.2-1.64,15.28-1,7.48-4.07,13.78-10.84,17.63a19.24,19.24,0,0,1-18.31,1c-4.64-2.14-7-6.12-8-11a31.15,31.15,0,0,1-.16-9.92q.93-8.5,1.83-17c0-.18.05-.35.08-.58"/><path class="cls-1" d="M198,43.08h-9.51c1.07-10.22,2.14-20.41,3.21-30.7h-13.8c.31-3,.62-5.89.93-8.82H216c-.3,3-.6,5.84-.91,8.81H201.27c-1.08,10.28-2.15,20.48-3.23,30.71"/><path class="cls-1" d="M56.66,3.57c-1.39,13.23-2.76,26.36-4.14,39.5h-9.4c1.38-13.19,2.76-26.32,4.14-39.5Z"/><path class="cls-1" d="M98.49,59.05l2.11-4c.5-.94.5-.94,1.76-.79-.41,2-.8,4.06-1.26,6.07,0,.19-.44.3-.68.45a1.81,1.81,0,0,0-.23-.18l.81-4.21-.2-.06c-.65,1.24-1.28,2.51-2,3.73-.19.33-.63.51-1.15.9-.25-1.82-.45-3.27-.64-4.73l-.17,0c-.26,1.26-.55,2.52-.76,3.8-.11.61-.39.78-1.07.58.4-2,.77-4,1.26-6,0-.24.76-.33,1.29-.54.26,1.84.48,3.45.7,5.06h.23"/><path class="cls-1" d="M191,54.14a22,22,0,0,1,2.71,0c.52.07,1.31.3,1.44.67a3.62,3.62,0,0,1-.22,1.8c0,.16-.23.29-.36.43,1.26,1.71-.16,3.57-2,3.58h-2.84c.43-2.19.85-4.3,1.28-6.51m-.07,5.6a14,14,0,0,0,2.06,0,1.14,1.14,0,0,0,1.07-1.35c-.07-.31-.77-.66-1.19-.67-2,0-1.48-.32-1.94,1.56a3.73,3.73,0,0,0,0,.48m.57-3a7.11,7.11,0,0,0,1.92,0c.37-.11.67-.62.88-1,.07-.11-.22-.57-.43-.65-1.27-.52-2.11,0-2.34,1.25a4.16,4.16,0,0,0,0,.45"/><path class="cls-1" d="M130.83,54.26l-1.24,6.28c-.78.29-1.15,0-1.41-.7A22.28,22.28,0,0,0,126.37,56c-.27,1.34-.59,2.68-.81,4-.11.66-.4.75-1,.55l1.25-6.29c.82-.3,1.2,0,1.46.69A21.39,21.39,0,0,0,129,58.76c.27-1.31.58-2.63.82-3.95.09-.54.28-.8,1-.55"/><path class="cls-1" d="M204,54a2.32,2.32,0,0,1,2.53,2.86c-.26,2.11-1.42,3.56-3.12,3.93a2.5,2.5,0,0,1-3.21-3C200.53,55.42,202,54,204,54m-2.82,4a1.72,1.72,0,0,0,.83,1.82,1.94,1.94,0,0,0,2.18-.28,3.43,3.43,0,0,0,1.36-3.09,1.59,1.59,0,0,0-1.88-1.58,3.1,3.1,0,0,0-2.49,3.13"/><path class="cls-1" d="M33.41,54a2.21,2.21,0,0,1,2.47,2.47A4.23,4.23,0,0,1,33,60.67c-2.09.62-3.54-.49-3.48-2.65A3.94,3.94,0,0,1,33.41,54m1.68,2.62a5.45,5.45,0,0,0-1-1.52,1.72,1.72,0,0,0-2.09.1,3.36,3.36,0,0,0-1.51,3A1.69,1.69,0,0,0,33,59.77a3.79,3.79,0,0,0,2.06-3.19"/><path class="cls-1" d="M120,56.56a4.18,4.18,0,0,1-3.13,4.19,2.44,2.44,0,0,1-3.21-2.62A4,4,0,0,1,117.48,54a2.24,2.24,0,0,1,2.51,2.6m-5.35,1.37-.23.14a5.9,5.9,0,0,0,1.09,1.66,1.7,1.7,0,0,0,2.08-.19A3.46,3.46,0,0,0,119,56.3a1.57,1.57,0,0,0-1.87-1.49,3.08,3.08,0,0,0-2.51,3.12"/><path class="cls-1" d="M162.26,60.65c.42-2.09.78-4,1.2-6a.93.93,0,0,1,.69-.51,16.33,16.33,0,0,1,2.32,0,1.78,1.78,0,0,1,1.77,1.59,4,4,0,0,1-4,4.9Zm2.07-5.59c-.31,1.54-.61,3.07-.94,4.73h1.29a3,3,0,0,0,2.64-3.39c-.07-1.19-.72-1.56-2.58-1.42-.12,0-.24.05-.41.08"/><path class="cls-1" d="M259.83,58.55a1.68,1.68,0,0,0,2.67,1.13,1.64,1.64,0,0,0,.57-1.07c0-.21-.43-.55-.74-.68-.54-.22-1.14-.28-1.69-.49a1.17,1.17,0,0,1-.77-1.56,2.76,2.76,0,0,1,4-1.65,2.4,2.4,0,0,1,.71,1.21c0,.14-.22.41-.34.62-.19-.14-.49-.25-.53-.43a1,1,0,0,0-1.18-.81,3,3,0,0,0-1.48.73c-.38.39-.22.88.38,1.07s.9.24,1.35.36a1.67,1.67,0,0,1,.8,3,3.29,3.29,0,0,1-3.7.51,2.43,2.43,0,0,1-.79-1.27c-.17-.59.15-.86.78-.66"/><path class="cls-1" d="M293.58,58.79c.35.36.66,1,1.05,1a3.2,3.2,0,0,0,2-.39c.64-.39.4-1.24-.33-1.48-.53-.18-1.08-.27-1.61-.44a1.24,1.24,0,0,1-.93-1.73,2.79,2.79,0,0,1,4-1.52,1.52,1.52,0,0,1,.57.89c.05.28-.18.6-.3.91-.2-.2-.47-.36-.58-.61-.34-.73-1-.69-1.58-.61A1.15,1.15,0,0,0,294.72,56a.89.89,0,0,0,.44.61,8.46,8.46,0,0,0,1.33.38,1.69,1.69,0,0,1,1,2.94,3.26,3.26,0,0,1-3.85.54,2.24,2.24,0,0,1-.68-1.22c-.16-.6.15-.87.77-.67l-.11.24"/><path class="cls-1" d="M41.36,58.55A1.63,1.63,0,0,0,44,59.68a1.56,1.56,0,0,0,.55-1.07c0-.23-.42-.56-.72-.69a12.58,12.58,0,0,0-1.52-.41,1.23,1.23,0,0,1-.92-1.65,2.72,2.72,0,0,1,4-1.57c.36.28.45.93.59,1.44,0,.09-.4.29-.64.45-.5-1.3-1.36-1.75-2.28-1.2a1.88,1.88,0,0,0-.67,1.1c0,.15.46.48.76.63s.7.1,1,.26c.5.29,1.18.58,1.38,1A1.83,1.83,0,0,1,45,60a3.28,3.28,0,0,1-3.64.44,2.39,2.39,0,0,1-.74-1.28c-.16-.6.15-.86.78-.65"/><path class="cls-1" d="M146,58.36c.5,1.56,1.91,2.11,3,1.24a1.41,1.41,0,0,0,.44-1c0-.22-.4-.51-.67-.63a13.7,13.7,0,0,0-1.43-.39c-1-.32-1.31-.81-1.05-1.82a2.77,2.77,0,0,1,4.05-1.43,2.61,2.61,0,0,1,.58,1.28c0,.11-.23.42-.4.45s-.42-.17-.49-.34a1.48,1.48,0,0,0-2.46-.43c-.54.59-.41,1.15.36,1.4.38.13.78.21,1.17.31a1.66,1.66,0,0,1,1,2.82,3.2,3.2,0,0,1-4,.62,2.41,2.41,0,0,1-.64-1.35c0-.18.36-.46.57-.7"/><path class="cls-1" d="M135.23,60.64c.41-2.09.8-4.09,1.23-6.08,0-.18.38-.39.59-.4,1.33,0,2.66,0,4,0,.15.63-.12.83-.66.83h-3.06c-.12.61-.24,1.16-.38,1.84h3.21c.21.64.06.92-.56.9s-1.24,0-1.86,0c-.79-.09-1.15.21-1.2,1a10.34,10.34,0,0,1-.16,1.07H140l.18.22c-.21.23-.41.64-.64.65-1.39.07-2.78,0-4.27,0"/><path class="cls-1" d="M174.22,54.2h4.57l.13.24c-.24.18-.46.46-.71.5a14.91,14.91,0,0,1-1.77,0c-1.64,0-1.66,0-1.67,1.83h3.16c.13.65,0,1-.65.91-.37,0-.75,0-1.12,0-1.89,0-1.89,0-2,2h3.53c.07.56.09.93-.58.92-1.36,0-2.72,0-4.17,0,.44-2.18.86-4.3,1.29-6.44"/><path class="cls-1" d="M15.31,54.27c-.33,1.54-.57,3.1-1,4.6a3,3,0,0,1-3.69,1.84,1.37,1.37,0,0,1-1.14-1.49c.2-1.59.49-3.18.81-4.75,0-.18.54-.27,1-.48-.3,1.55-.53,2.82-.79,4.09-.15.74-.24,1.46.64,1.8a1.74,1.74,0,0,0,2.16-1,17.52,17.52,0,0,0,.63-2.52,15.72,15.72,0,0,0,.3-1.55c.08-.57.32-.86,1.1-.56"/><path class="cls-1" d="M80.41,56.32c-.39-.23-.73-.32-.84-.53A1.63,1.63,0,0,0,77.2,55a3.72,3.72,0,0,0-1.59,4,1.62,1.62,0,0,0,2.52.54,9.69,9.69,0,0,0,.86-.94A10.14,10.14,0,0,1,80,58a3.09,3.09,0,0,1-4.41,2.51,2.28,2.28,0,0,1-.84-.93A4.13,4.13,0,0,1,78.67,54c1.21.09,1.78.75,1.74,2.35"/><path class="cls-1" d="M237,58.1c-.42,1.93-1.74,2.88-3.32,2.71a2,2,0,0,1-1.78-1.16,4.33,4.33,0,0,1,.56-4.07A3.35,3.35,0,0,1,235.78,54c1.21.11,1.79.79,1.73,2.28-.33-.17-.71-.23-.82-.44a1.64,1.64,0,0,0-2.37-.79,3.73,3.73,0,0,0-1.61,4,1.5,1.5,0,0,0,2.11.75,8.05,8.05,0,0,0,1.29-1.14,7.76,7.76,0,0,1,.88-.56"/><path class="cls-1" d="M280.06,54.25c.29,2.09.59,4.17.9,6.34l-1,.06c-.11-.61-.21-1.18-.33-1.86a7.32,7.32,0,0,0-2,0c-.4.12-.73.65-1,1.07s-.57,1-1.38.65L276.75,58c.6-1.05,1.24-2.07,1.8-3.14a1.07,1.07,0,0,1,1.51-.63m-2.22,3.57h1.75c-.11-.79-.22-1.5-.35-2.49l-1.4,2.49"/><path class="cls-1" d="M226.33,60.6h-1L225,58.78a6.88,6.88,0,0,0-2,0c-.43.14-.78.7-1,1.15a1,1,0,0,1-1.35.58c.49-.85,1-1.7,1.44-2.53l1.81-3.14c.45-.77.45-.77,1.48-.68.3,2.08.6,4.18.92,6.39m-3.12-2.77H225l-.31-2.2-.2,0-1.24,2.23"/><path class="cls-1" d="M241.46,60.55c1.18-2,2.32-4.09,3.55-6.09.15-.26.7-.27,1.18-.43.32,2.29.61,4.39.91,6.5-.74.27-1.13.07-1.09-.64.05-.89-.32-1.1-1.19-1.15a1.76,1.76,0,0,0-2,1.25c-.21.62-.63.8-1.32.56M244,57.84h1.76c-.11-.79-.22-1.51-.35-2.5L244,57.84"/><path class="cls-1" d="M84.36,60.53c1.16-2,2.29-4,3.5-6,.17-.28.73-.32,1.22-.51.32,2.34.61,4.44.9,6.52-.8.31-1.12,0-1.09-.66,0-.92-.37-1.08-1.21-1.12a1.69,1.69,0,0,0-2,1.2.88.88,0,0,1-1.34.59m4.28-2.68-.32-2.21-.25,0-1.18,2.17Z"/><path class="cls-1" d="M213.9,60.6h-1.18c1.29-2.37-.09-4.29-.83-6.31,1-.25,1-.25,1.34.65l.76,2c1.34-.7,1.47-2.75,3.48-2.81-1.4,2.17-3.74,3.61-3.57,6.49"/><path class="cls-1" d="M59.07,60.51c1.16-2.29-.12-4.23-.93-6.23,1-.44,1.22.19,1.45.88s.47,1.18.7,1.77c1.28-.78,1.48-2.68,3.37-2.65-.48.6-.95,1.22-1.46,1.8a6.29,6.29,0,0,0-2,4c0,.57-.34.74-1.11.48"/><path class="cls-1" d="M22.32,55l-1.94-.08-.17-.23c.22-.19.43-.52.65-.53,1.51-.05,3,0,4.54,0,0,.09.1.18.15.28a7.93,7.93,0,0,1-.65.53.72.72,0,0,1-.46,0c-1-.17-1.28.29-1.41,1.18-.23,1.49-.57,3-.86,4.47h-1c.37-1.86.72-3.66,1.1-5.6"/><path class="cls-1" d="M109,54.25c-.4,2-.77,4-1.22,6,0,.22-.55.33-1,.6.45-2.28.84-4.24,1.23-6.2.12-.63.51-.55,1-.4"/><path class="cls-1" d="M247.39,52.33l-1.8,1.4-.22-.29c.49-.5.66-1.43,2-1.11"/><path class="cls-1" d="M239.09,30.63a6,6,0,0,1-6.23-6.12,7.45,7.45,0,0,1,7.49-7.23,6,6,0,0,1,6.22,6.14,7.4,7.4,0,0,1-7.48,7.21"/><path class="cls-1" d="M4.73,54.25c.3,2.09.59,4.17.9,6.34l-1,.06c-.11-.61-.21-1.18-.34-1.86a7.34,7.34,0,0,0-2,0c-.4.12-.73.65-1,1.07s-.58,1-1.38.65L1.43,58C2,57,2.66,56,3.22,54.88a1.07,1.07,0,0,1,1.51-.63M2.51,57.82H4.26l-.35-2.49-1.4,2.49"/></g></g></svg>