<svg xmlns="http://www.w3.org/2000/svg" viewBox="0 0 34.28 34.28"><defs><style>.cls-1{fill:#ff4cfe;}</style></defs><g id="Capa_2" data-name="Capa 2"><g id="Capa_1-2" data-name="Capa 1"><path class="cls-1" d="M17.14,3.09c4.57,0,5.12,0,6.92.1a9.29,9.29,0,0,1,3.19.59,5.29,5.29,0,0,1,2,1.28A5.29,5.29,0,0,1,30.5,7a9.67,9.67,0,0,1,.59,3.18c.08,1.81.1,2.35.1,6.93s0,5.12-.1,6.92a9.81,9.81,0,0,1-.59,3.19,5.66,5.66,0,0,1-3.25,3.25,9.81,9.81,0,0,1-3.19.59c-1.8.08-2.35.1-6.92.1s-5.12,0-6.93-.1A9.67,9.67,0,0,1,7,30.5a5.29,5.29,0,0,1-2-1.28,5.29,5.29,0,0,1-1.28-2,9.29,9.29,0,0,1-.59-3.19c-.08-1.8-.1-2.35-.1-6.92s0-5.12.1-6.93A9.16,9.16,0,0,1,3.78,7a5.29,5.29,0,0,1,1.28-2A5.29,5.29,0,0,1,7,3.78a9.16,9.16,0,0,1,3.18-.59c1.81-.08,2.35-.1,6.93-.1m0-3.09c-4.66,0-5.24,0-7.07.1A12.87,12.87,0,0,0,5.91.9a8.36,8.36,0,0,0-3,2,8.36,8.36,0,0,0-2,3,12.87,12.87,0,0,0-.8,4.16C0,11.9,0,12.48,0,17.14s0,5.24.1,7.06a12.81,12.81,0,0,0,.8,4.16,8.31,8.31,0,0,0,2,3,8.49,8.49,0,0,0,3,2,12.63,12.63,0,0,0,4.16.79c1.83.09,2.41.11,7.07.11s5.24,0,7.06-.11a12.58,12.58,0,0,0,4.16-.79,8.78,8.78,0,0,0,5-5,12.58,12.58,0,0,0,.79-4.16c.09-1.82.11-2.41.11-7.06s0-5.24-.11-7.07a12.63,12.63,0,0,0-.79-4.16,8.49,8.49,0,0,0-2-3,8.31,8.31,0,0,0-3-2A12.81,12.81,0,0,0,24.2.1C22.38,0,21.79,0,17.14,0Z"/><path class="cls-1" d="M17.14,8.34a8.8,8.8,0,1,0,8.8,8.8A8.8,8.8,0,0,0,17.14,8.34Zm0,14.51a5.71,5.71,0,1,1,5.71-5.71A5.71,5.71,0,0,1,17.14,22.85Z"/><circle class="cls-1" cx="26.29" cy="7.99" r="2.06"/></g></g></svg>