<svg xmlns="http://www.w3.org/2000/svg" viewBox="0 0 313.5 94.18"><defs><style>.cls-1,.cls-2,.cls-3,.cls-7{fill:#fff;}.cls-2{font-size:29.61px;}.cls-2,.cls-3,.cls-7{font-family:Greenwich-Bold, Greenwich;font-weight:700;}.cls-3{font-size:28.59px;}.cls-4{letter-spacing:0em;}.cls-5{letter-spacing:0em;}.cls-6{letter-spacing:0em;}.cls-7{font-size:29.63px;}</style></defs><g id="Capa_2" data-name="Capa 2"><g id="Capa_1-2" data-name="Capa 1"><path class="cls-1" d="M139,4.57v11h-33.7a25.58,25.58,0,0,0-9.67-9.67V5.79a9.9,9.9,0,0,0-3.24-1.22Z"/><path class="cls-1" d="M137,76.31v11H84.71V53.56a25.48,25.48,0,0,0,16.65-7.65h33.2v11H95.65V76.31Z"/><path class="cls-1" d="M82.28,53.6V87.26h-11V74.36A41.33,41.33,0,0,1,0,46.76,41.7,41.7,0,0,1,19.3,10.93C31.45,3.26,45.48,4.57,59.19,4.57H73.1a25.63,25.63,0,0,0-9.22,6.69,24.51,24.51,0,0,0-3,4.26H37.58a23,23,0,0,0-10,2.24,30.81,30.81,0,1,0,41.7,39.91H34.45V46.73H65.64a25.57,25.57,0,0,0,5.65,4l0,0A25.42,25.42,0,0,0,82,53.59Z"/><path class="cls-1" d="M72.58,18a1.34,1.34,0,0,0-.19-1.31c-.14-.14-.1-.26.08-.35a8.72,8.72,0,0,0,1.19-.68,4.12,4.12,0,0,0,.75-.85c.13-.19.22-.36.5-.33a.74.74,0,0,0,.48-.18.31.31,0,0,0,0-.31.45.45,0,0,1,0-.66.69.69,0,0,0,.15-.76c-.14-.41.22-.7.38-1a1.19,1.19,0,0,1,.34-.4,4.42,4.42,0,0,1,.72-.43,8.63,8.63,0,0,1,1.11-.4.58.58,0,0,1,.42.08c.22.13.3,0,.34-.16s.23-.39.52-.4a7.23,7.23,0,0,0,3.68-1,3.9,3.9,0,0,0,.49-.28,2.53,2.53,0,0,0,.49-.6c.14-.25.19-.55.59-.41,0,0,.14-.07.17-.13a1.07,1.07,0,0,0,.05-.23c.24-.09.44-.15.62-.23a1.24,1.24,0,0,1,1.25.63c.06.31-.12.58-.47.81a9.84,9.84,0,0,0-1.71,1.19,13.44,13.44,0,0,1-1.16,1.1.44.44,0,0,0-.15.18c-.31.67-.62,1.33-.9,2a5.72,5.72,0,0,0-.11.57c-.13.4-.28.78-.43,1.17a2.86,2.86,0,0,1-.2.38.89.89,0,0,1,1.15.66,2.84,2.84,0,0,0,.16.57,1,1,0,0,0,.3.42,1.07,1.07,0,0,1,.4,1.48,3.32,3.32,0,0,0-.22,1c0,.14.18.4.29.4.42,0,.54.34.71.6s.31.49.68.27a.55.55,0,0,1,.4,0c.38.11.76.25,1.14.35a.57.57,0,0,0,.38-.05,1.34,1.34,0,0,1,1.23-.12c.29.1.61.11.91.19a1,1,0,0,1,.46.27c.46.5.89,1,1.34,1.53a.42.42,0,0,0,.26.12c.91,0,1.82,0,2.72-.11a2.52,2.52,0,0,0,.77-.16,1.34,1.34,0,0,1,1.15.19.54.54,0,0,1,0,.9c-.26.2-.41.36-.26.72a.74.74,0,0,1-.19.6A1.78,1.78,0,0,0,95,25.89a3.07,3.07,0,0,0,.33,2,1.68,1.68,0,0,1,.11.4,1.48,1.48,0,0,0,.2.44c.17.17.41.29.3.59a.1.1,0,0,0,0,.1c.44.3.18.52-.07.77s-.36.43-.54.64-.12.27,0,.41a6.88,6.88,0,0,1,.7.73.8.8,0,0,1,.14.45.49.49,0,0,0,.33.48.62.62,0,0,1,.3.34c.12.54.22,1.09.31,1.64a.38.38,0,0,1-.16.31.68.68,0,0,1-.42.09s-.08-.21-.1-.32a3.65,3.65,0,0,0-.44-1.56c-.16-.22-.36-.3-.59-.09l-.21.19c-.31.3-.44.31-.78.06s-.33-.22-.51.14a.51.51,0,0,1-.27.23,1.24,1.24,0,0,1-1.12-.09.74.74,0,0,0-.36-.09h-1.5c-.45,0-.63.18-.65.64,0,.12,0,.25,0,.38,0,.42.21.58.63.59h.46c.22,0,.41.07.36.39a.68.68,0,0,0,.11.35c.13.27,0,.46-.24.51a1,1,0,0,1-.45,0,1.51,1.51,0,0,0-1.32.27s-.08.07-.08.11a11.32,11.32,0,0,0,.06,1.43c0,.21.26.4.42.58A3.16,3.16,0,0,1,91,41.82c-.34,1.63-.61,3.26-.9,4.89-.07.35-.12.7-.22,1a.6.6,0,0,1-.32.4.56.56,0,0,1-.46-.21.86.86,0,0,0-.83-.39,1.41,1.41,0,0,1-.44-.14,2.06,2.06,0,0,1,.14-.44c.3-.49.63-1,.9-1.46s.28-.85-.3-1.18a7,7,0,0,0-1.43-.53.68.68,0,0,0-.48.17.41.41,0,0,1-.53,0,4,4,0,0,0-.81-.31.59.59,0,0,0-.34.05c-.47.19-.93.41-1.42.57-.19.06-.45-.08-.64,0a1.66,1.66,0,0,1-1.18-.17.37.37,0,0,1-.25-.57.71.71,0,0,0-.4-.92,1.49,1.49,0,0,1-.37-.38,2.51,2.51,0,0,0-.4-.5c-.39-.27-.82-.5-1.22-.75a.77.77,0,0,1-.31-.28,3.88,3.88,0,0,1-.38-.86,1,1,0,0,0-.65-.72,3.72,3.72,0,0,1-.75-.57c-.2-.17-.39-.32-.68-.17a.48.48,0,0,1-.37,0c-.29-.13-.57-.28-.85-.43s-.57-.36-.85-.53a.45.45,0,0,0-.27-.08,6.76,6.76,0,0,0-1.35.08,1.57,1.57,0,0,1-1.26-.31c-.12-.09-.33,0-.47-.08s-.33-.17-.36-.29c-.16-.6-.3-.92-1.09-.66a.53.53,0,0,1-.35-.09,14.58,14.58,0,0,1-1.48-1,4.36,4.36,0,0,1-.8-.91.44.44,0,0,1,.08-.39,1.9,1.9,0,0,1,.53-.33c.19-.09.22-.2.15-.39a1.17,1.17,0,0,1,.76-1.49c.3-.07.62-.11.93-.15s.47-.1.51-.44a1.34,1.34,0,0,1,.36-.67c.34-.37.73-.71,1.09-1.07a.69.69,0,0,0,0-1,2.51,2.51,0,0,1-.48-.44.63.63,0,0,1-.08-.5c.12-.36.3-.7.45-1a.34.34,0,0,0,0-.17c-.16-.54-.33-1.08-.48-1.62a.46.46,0,0,1,.1-.38c.48-.47.49-.49.12-1.05-.27-.41-.26-.43.08-.74a.54.54,0,0,0,0-.79,5.2,5.2,0,0,1-.51-.63c-.11-.13-.23-.25-.33-.38s-.35-.43-.51-.66a.18.18,0,0,1,0-.16c.39-.3.46-.95,1.11-1a1,1,0,0,0,.43-.22.4.4,0,0,0,.17-.59c-.14-.27-.23-.57-.36-.84a.36.36,0,0,1,.18-.53c.14,0,.42,0,.48.08.29.42.8.68.9,1.24A.59.59,0,0,0,72.58,18Z"/><path class="cls-1" d="M83.09,4.57a23.51,23.51,0,1,0,23.5,23.51A23.51,23.51,0,0,0,83.09,4.57Zm0,44.59a21.08,21.08,0,1,1,21.07-21.08A21.08,21.08,0,0,1,83.09,49.16Z"/><text class="cls-2" transform="translate(155.07 25.17)">Guía</text><text class="cls-3" transform="translate(155.24 55.85)">Elec<tspan class="cls-4" x="56.06" y="0">t</tspan><tspan x="67.24" y="0">o</tspan><tspan class="cls-5" x="84.08" y="0">r</tspan><tspan class="cls-6" x="95.2" y="0">al de</tspan></text><text class="cls-7" transform="translate(155.71 87.19)">Colombia</text><path class="cls-1" d="M306.28,82.43,304,79.32h-2.28v3.11h-.9v-8h3.43a4,4,0,0,1,1.19.17,2.73,2.73,0,0,1,.91.49,2.11,2.11,0,0,1,.58.75,2.24,2.24,0,0,1,.21,1,2.17,2.17,0,0,1-.61,1.58,2.83,2.83,0,0,1-.69.48,3.15,3.15,0,0,1-.87.27l2.45,3.27Zm-.62-6.74a2.4,2.4,0,0,0-1.51-.42h-2.47v3.25h2.46a2.67,2.67,0,0,0,.82-.11,2.09,2.09,0,0,0,.65-.33,1.35,1.35,0,0,0,.43-.52,1.45,1.45,0,0,0,.16-.7A1.4,1.4,0,0,0,305.66,75.69Z"/><path class="cls-1" d="M303.77,87.05a8.51,8.51,0,1,1,8.51-8.51A8.52,8.52,0,0,1,303.77,87.05Zm0-16.19a7.68,7.68,0,1,0,7.68,7.68A7.69,7.69,0,0,0,303.77,70.86Z"/></g></g></svg>