<svg xmlns="http://www.w3.org/2000/svg" viewBox="0 0 34.68 34.84"><defs><style>.cls-1{fill:#ff4cfe;fill-rule:evenodd;}</style></defs><g id="Capa_2" data-name="Capa 2"><g id="Capa_1-2" data-name="Capa 1"><g id="WA_Logo" data-name="WA Logo"><path class="cls-1" d="M29.63,5.06A17.27,17.27,0,0,0,2.45,25.89L0,34.84l9.15-2.4a17.36,17.36,0,0,0,8.26,2.1h0A17.27,17.27,0,0,0,29.63,5.06ZM17.41,31.62h0a14.32,14.32,0,0,1-7.31-2l-.52-.31L4.15,30.73,5.6,25.44l-.35-.54a14.36,14.36,0,0,1,12.17-22,14.35,14.35,0,0,1,0,28.7Zm7.87-10.74c-.43-.22-2.55-1.26-2.94-1.41s-.69-.21-1,.22-1.12,1.4-1.37,1.69-.5.32-.94.11a11.78,11.78,0,0,1-3.46-2.14,12.91,12.91,0,0,1-2.4-3c-.26-.43,0-.67.18-.88s.44-.51.65-.76a2.65,2.65,0,0,0,.43-.72.79.79,0,0,0,0-.75c-.11-.22-1-2.34-1.33-3.21s-.71-.72-1-.74H11.3a1.58,1.58,0,0,0-1.15.54,4.81,4.81,0,0,0-1.51,3.6,8.37,8.37,0,0,0,1.76,4.46c.22.29,3,4.64,7.37,6.51a23.56,23.56,0,0,0,2.46.91,5.91,5.91,0,0,0,2.72.17,4.42,4.42,0,0,0,2.91-2.05,3.57,3.57,0,0,0,.25-2.05C26,21.2,25.72,21.09,25.28,20.88Z"/></g></g></g></svg>