<svg xmlns="http://www.w3.org/2000/svg" viewBox="0 0 177.18 130"><defs><style>.cls-1{fill:#fff;}</style></defs><g id="Capa_2" data-name="Capa 2"><g id="Capa_1-2" data-name="Capa 1"><path class="cls-1" d="M0,118.82l6-12H26.35l-1.8,3.59H10.18l-3,6H21.56l-1.2,2.4Z"/><path class="cls-1" d="M24,118.82l-1.2-2.4,4.79-9.58h9.58l6,12h-6l-1.79-3.59h-6l-1.8,3.59Zm10.18-6-1.8-3.59-1.79,3.59Z"/><path class="cls-1" d="M57.19,122.41l-3.59-7.18H48.21l1.19-2.4H56l1.2-2.4H48.8l-4.19,8.39h-6l6-12H65L61.38,114H59l3,6h38.93l-1.2,2.39Z"/><path class="cls-1" d="M80.23,122.41l-3.6-7.18H71.24l1.2-2.4H79l1.2-2.4H71.84l-4.19,8.39h-6l6-12H88L84.42,114H82l3,6H124l-1.2,2.39Z"/><path class="cls-1" d="M84.7,118.82l6-12h20.36l-6,12Zm15.57-2.4,3-6H94.88l-3,6Z"/><path class="cls-1" d="M111.66,118.82l-1.2-2.4,4.79-9.58h9.59l6,12h-6l-1.8-3.59h-6l-1.8,3.59Zm10.18-6-1.79-3.59-1.8,3.59Z"/><path class="cls-1" d="M126.32,118.82l6-12h20.37l-1.8,3.59H136.5l-3,6h8.39l-.6-1.19H135.9l1.2-2.4h9l1.8,3.59-1.2,2.4Z"/><path class="cls-1" d="M148.16,118.82l6-12h6l-6,12Z"/><path class="cls-1" d="M155.62,118.82l6-12h6l-4.79,9.58h14.37l-1.19,2.4Z"/><path class="cls-1" d="M104.58,0H72.73L30.79,72.67l15.61,27h83.92l17-27.62Zm24.87,98.16H47.29L32.57,72.7,73.62,1.58h30.06l41.84,70.49Z"/><path class="cls-1" d="M102.81,3.1H74.52L34.37,72.67,48.19,96.58h80.4L143.72,72ZM127.14,94h-25.3l2.43-4.13L114.79,72H88.89L78.28,89.9,75.83,94H49.67L37.34,72.7,76,5.71h25.33l13.46,23.12h-4.54l-21.36-.05L63.48,72H88.89l12-22.16h26.67L140.7,72Z"/><path class="cls-1" d="M38.19,128.53a1.52,1.52,0,0,1,.09-.51,1.43,1.43,0,0,1,.26-.45,1.59,1.59,0,0,1,.43-.33,1.32,1.32,0,0,1,.57-.12,1.15,1.15,0,0,1,.65.17,1,1,0,0,1,.4.45l-.22.13a.81.81,0,0,0-.17-.23.65.65,0,0,0-.21-.16.63.63,0,0,0-.23-.08,1,1,0,0,0-.24,0,.93.93,0,0,0-.45.1,1,1,0,0,0-.33.28,1,1,0,0,0-.2.37,1.29,1.29,0,0,0-.07.43,1.33,1.33,0,0,0,.08.45,1.38,1.38,0,0,0,.23.39,1.06,1.06,0,0,0,.33.26.88.88,0,0,0,.43.1,1,1,0,0,0,.24,0,.77.77,0,0,0,.25-.1,1.12,1.12,0,0,0,.22-.16,1,1,0,0,0,.16-.24l.24.12a.8.8,0,0,1-.2.28,1.39,1.39,0,0,1-.27.21,1.62,1.62,0,0,1-.33.13,1.24,1.24,0,0,1-.33,0,1.13,1.13,0,0,1-.54-.13,1.34,1.34,0,0,1-.42-.33,1.69,1.69,0,0,1-.27-.47A1.44,1.44,0,0,1,38.19,128.53Z"/><path class="cls-1" d="M44.65,130a1.14,1.14,0,0,1-.55-.13,1.46,1.46,0,0,1-.42-.32,1.56,1.56,0,0,1-.37-1,1.66,1.66,0,0,1,.1-.54,1.56,1.56,0,0,1,.29-.46,1.46,1.46,0,0,1,.42-.32,1.18,1.18,0,0,1,.53-.12,1.2,1.2,0,0,1,.54.13,1.14,1.14,0,0,1,.42.33,1.43,1.43,0,0,1,.27.46,1.39,1.39,0,0,1,.1.53,1.62,1.62,0,0,1-.1.54,1.42,1.42,0,0,1-.28.46,1.38,1.38,0,0,1-.43.32A1.17,1.17,0,0,1,44.65,130Zm-1.06-1.45a1.33,1.33,0,0,0,.08.45,1.11,1.11,0,0,0,.55.65,1,1,0,0,0,.43.09.88.88,0,0,0,.43-.1,1.09,1.09,0,0,0,.33-.27,1.28,1.28,0,0,0,.21-.38,1.25,1.25,0,0,0,0-.88,1.11,1.11,0,0,0-.22-.38.93.93,0,0,0-.33-.26.87.87,0,0,0-.42-.1.92.92,0,0,0-.44.1,1.09,1.09,0,0,0-.33.27,1.28,1.28,0,0,0-.21.38A1.31,1.31,0,0,0,43.59,128.55Z"/><path class="cls-1" d="M49.19,127.65V130h-.28v-2.85h.22L51,129.5v-2.36h.28V130H51Z"/><path class="cls-1" d="M56.31,129.73V130H54.4v-2.85h1.88v.25h-1.6v1h1.39v.23H54.68v1.09Z"/><path class="cls-1" d="M59,128.53a1.52,1.52,0,0,1,.09-.51,1.26,1.26,0,0,1,.26-.45,1.4,1.4,0,0,1,.42-.33,1.32,1.32,0,0,1,.57-.12,1.16,1.16,0,0,1,.66.17,1,1,0,0,1,.39.45l-.22.13a.79.79,0,0,0-.16-.23,1,1,0,0,0-.21-.16.7.7,0,0,0-.23-.08,1,1,0,0,0-.24,0,.93.93,0,0,0-.45.1,1,1,0,0,0-.33.28,1.23,1.23,0,0,0-.21.37,1.59,1.59,0,0,0-.06.43,1.12,1.12,0,0,0,.08.45,1.36,1.36,0,0,0,.22.39,1.23,1.23,0,0,0,.34.26.87.87,0,0,0,.42.1l.25,0a.82.82,0,0,0,.24-.1,1.12,1.12,0,0,0,.22-.16,1,1,0,0,0,.17-.24l.23.12a.92.92,0,0,1-.19.28,1.46,1.46,0,0,1-.28.21,1.79,1.79,0,0,1-.32.13,1.32,1.32,0,0,1-.34,0,1.07,1.07,0,0,1-.53-.13,1.34,1.34,0,0,1-.42-.33,1.72,1.72,0,0,1-.28-.47A1.65,1.65,0,0,1,59,128.53Z"/><path class="cls-1" d="M66.32,127.38h-1V130H65v-2.6H64v-.25h2.3Z"/><path class="cls-1" d="M69.75,127.13H70L71.17,130h-.3l-.37-.89H69.23l-.37.89h-.3Zm.69,1.74-.57-1.41-.58,1.41Z"/><path class="cls-1" d="M74.26,127.65V130H74v-2.85h.21l1.89,2.37v-2.36h.28V130h-.25Z"/><path class="cls-1" d="M79.47,130v-2.85h1a1.38,1.38,0,0,1,.59.12,1.19,1.19,0,0,1,.43.3,1.41,1.41,0,0,1,.25.45,1.67,1.67,0,0,1,.09.55,1.59,1.59,0,0,1-.1.59,1.29,1.29,0,0,1-.27.45,1.15,1.15,0,0,1-.43.28,1.47,1.47,0,0,1-.56.11Zm2-1.43a1.72,1.72,0,0,0-.07-.47,1.12,1.12,0,0,0-.21-.37,1,1,0,0,0-.34-.24,1.14,1.14,0,0,0-.46-.09h-.69v2.35h.69a1.11,1.11,0,0,0,.46-.09,1,1,0,0,0,.34-.25,1.23,1.23,0,0,0,.21-.37A1.78,1.78,0,0,0,81.52,128.55Z"/><path class="cls-1" d="M85.88,130a1.08,1.08,0,0,1-.54-.13,1.34,1.34,0,0,1-.42-.32,1.53,1.53,0,0,1-.27-1.54,1.53,1.53,0,0,1,.28-.46,1.38,1.38,0,0,1,.43-.32,1.18,1.18,0,0,1,.53-.12,1.26,1.26,0,0,1,.54.13,1.34,1.34,0,0,1,.42.33,1.43,1.43,0,0,1,.27.46,1.61,1.61,0,0,1,.1.53,1.41,1.41,0,0,1-.11.54,1.27,1.27,0,0,1-.28.46,1.46,1.46,0,0,1-.42.32A1.18,1.18,0,0,1,85.88,130Zm-1-1.45a1.12,1.12,0,0,0,.08.45,1.28,1.28,0,0,0,.21.38,1.22,1.22,0,0,0,.33.27,1,1,0,0,0,.43.09.92.92,0,0,0,.44-.1,1.09,1.09,0,0,0,.33-.27,1.28,1.28,0,0,0,.21-.38,1.25,1.25,0,0,0,0-.88,1.3,1.3,0,0,0-.22-.38,1,1,0,0,0-.33-.26,1,1,0,0,0-.86,0,1.13,1.13,0,0,0-.34.27,1.28,1.28,0,0,0-.21.38A1.29,1.29,0,0,0,84.83,128.55Z"/><path class="cls-1" d="M95.48,127.38h-1V130h-.28v-2.6h-1v-.25h2.31Z"/><path class="cls-1" d="M99.46,129.74a.87.87,0,0,0,.44-.1.84.84,0,0,0,.29-.27.91.91,0,0,0,.14-.38,2,2,0,0,0,0-.42v-1.44h.28v1.44a1.9,1.9,0,0,1-.07.54,1.29,1.29,0,0,1-.2.46,1.12,1.12,0,0,1-.37.31,1.22,1.22,0,0,1-.56.12,1.14,1.14,0,0,1-.57-.13,1,1,0,0,1-.37-.32,1.32,1.32,0,0,1-.2-.45,2.39,2.39,0,0,1-.06-.53v-1.44h.28v1.44a2,2,0,0,0,0,.43,1.16,1.16,0,0,0,.15.38.73.73,0,0,0,.29.26A.82.82,0,0,0,99.46,129.74Z"/><path class="cls-1" d="M105.39,127.67a.83.83,0,0,0-.32-.22,1.11,1.11,0,0,0-.46-.09.91.91,0,0,0-.55.14.51.51,0,0,0-.17.39.41.41,0,0,0,0,.21.47.47,0,0,0,.14.14,1,1,0,0,0,.25.11,2.29,2.29,0,0,0,.35.08l.41.11a1.12,1.12,0,0,1,.31.15.69.69,0,0,1,.2.22.76.76,0,0,1,.07.32.71.71,0,0,1-.08.34.61.61,0,0,1-.21.24.82.82,0,0,1-.33.14,1.77,1.77,0,0,1-1.55-.36l.14-.23.18.15a1.36,1.36,0,0,0,.24.13l.28.08a1.55,1.55,0,0,0,.31,0,1,1,0,0,0,.53-.12.41.41,0,0,0,.19-.37.48.48,0,0,0-.05-.22.44.44,0,0,0-.17-.16,1.16,1.16,0,0,0-.27-.11,2.43,2.43,0,0,0-.37-.1,2.66,2.66,0,0,1-.39-.11.74.74,0,0,1-.28-.14.49.49,0,0,1-.18-.2.65.65,0,0,1-.06-.29.78.78,0,0,1,.08-.35.75.75,0,0,1,.21-.26,1.05,1.05,0,0,1,.32-.15,1.31,1.31,0,0,1,.41-.06,1.28,1.28,0,0,1,.5.09,1.52,1.52,0,0,1,.41.24Z"/><path class="cls-1" d="M113.65,127.67a.83.83,0,0,0-.32-.22,1.14,1.14,0,0,0-.46-.09.91.91,0,0,0-.55.14.51.51,0,0,0-.17.39.41.41,0,0,0,0,.21.41.41,0,0,0,.15.14.9.9,0,0,0,.24.11,2.45,2.45,0,0,0,.36.08l.41.11a1.28,1.28,0,0,1,.31.15.66.66,0,0,1,.19.22.63.63,0,0,1,.07.32.71.71,0,0,1-.07.34.64.64,0,0,1-.22.24.84.84,0,0,1-.32.14,1.77,1.77,0,0,1-.41.05,1.72,1.72,0,0,1-1.14-.41l.14-.23.18.15a1.71,1.71,0,0,0,.23.13l.28.08a1.63,1.63,0,0,0,.31,0,1,1,0,0,0,.54-.12.43.43,0,0,0,.19-.37.38.38,0,0,0-.06-.22.41.41,0,0,0-.16-.16,1.16,1.16,0,0,0-.27-.11,2.8,2.8,0,0,0-.37-.1,2.66,2.66,0,0,1-.39-.11.78.78,0,0,1-.29-.14.47.47,0,0,1-.17-.2.65.65,0,0,1-.06-.29.78.78,0,0,1,.07-.35.75.75,0,0,1,.21-.26,1.05,1.05,0,0,1,.32-.15,1.46,1.46,0,0,1,.92,0,1.47,1.47,0,0,1,.4.24Z"/><path class="cls-1" d="M118,129.74a.88.88,0,0,0,.45-.1.81.81,0,0,0,.28-.27,1.08,1.08,0,0,0,.15-.38,2,2,0,0,0,0-.42v-1.44h.28v1.44a2.35,2.35,0,0,1-.06.54,1.3,1.3,0,0,1-.21.46,1,1,0,0,1-.37.31,1.19,1.19,0,0,1-.56.12,1.08,1.08,0,0,1-.56-.13.89.89,0,0,1-.37-.32,1.15,1.15,0,0,1-.2-.45,2.39,2.39,0,0,1-.06-.53v-1.44h.27v1.44a2,2,0,0,0,0,.43,1.16,1.16,0,0,0,.15.38.7.7,0,0,0,.28.26A.84.84,0,0,0,118,129.74Z"/><path class="cls-1" d="M124.15,129.73V130h-1.91v-2.85h1.88v.25h-1.6v1h1.39v.23h-1.39v1.09Z"/><path class="cls-1" d="M127.36,127.65V130h-.28v-2.85h.22l1.88,2.37v-2.36h.28V130h-.24Zm1.17-1-.16,0-.12-.06-.11,0a.27.27,0,0,0-.12,0,.18.18,0,0,0-.11,0l-.06.06a.25.25,0,0,0,0,.07.08.08,0,0,0,0,0h-.17s0,0,0-.08a.21.21,0,0,1,0-.12.41.41,0,0,1,.11-.12.36.36,0,0,1,.19,0,.32.32,0,0,1,.14,0l.12.06.11,0a.32.32,0,0,0,.14,0,.21.21,0,0,0,.12,0l.07-.06a.13.13,0,0,0,0-.07s0,0,0,0h.16a.28.28,0,0,1,0,.08.38.38,0,0,1-.06.13.43.43,0,0,1-.12.11A.31.31,0,0,1,128.53,126.67Z"/><path class="cls-1" d="M133.72,130a1.08,1.08,0,0,1-.54-.13,1.23,1.23,0,0,1-.42-.32,1.43,1.43,0,0,1-.37-1,1.44,1.44,0,0,1,.1-.54,1.53,1.53,0,0,1,.28-.46,1.38,1.38,0,0,1,.43-.32,1.18,1.18,0,0,1,.53-.12,1.26,1.26,0,0,1,.54.13,1.34,1.34,0,0,1,.42.33,1.92,1.92,0,0,1,.27.46,1.6,1.6,0,0,1,.09.53,1.4,1.4,0,0,1-.1.54,1.42,1.42,0,0,1-.28.46,1.46,1.46,0,0,1-.42.32A1.18,1.18,0,0,1,133.72,130Zm-1.05-1.45a1.33,1.33,0,0,0,.07.45,1.57,1.57,0,0,0,.22.38,1.09,1.09,0,0,0,.33.27,1,1,0,0,0,.43.09.92.92,0,0,0,.44-.1,1.09,1.09,0,0,0,.33-.27,1.28,1.28,0,0,0,.21-.38,1.42,1.42,0,0,0,0-.88,1.57,1.57,0,0,0-.22-.38,1.15,1.15,0,0,0-.33-.26,1,1,0,0,0-.86,0,1,1,0,0,0-.34.27,1.28,1.28,0,0,0-.21.38A1.29,1.29,0,0,0,132.67,128.55Z"/><path class="cls-1" d="M139.65,127.67a.83.83,0,0,0-.32-.22,1.14,1.14,0,0,0-.46-.09.91.91,0,0,0-.55.14.51.51,0,0,0-.17.39.41.41,0,0,0,0,.21.37.37,0,0,0,.14.14.9.9,0,0,0,.24.11,2.45,2.45,0,0,0,.36.08l.41.11a1.28,1.28,0,0,1,.31.15.83.83,0,0,1,.2.22.76.76,0,0,1,.06.32.71.71,0,0,1-.07.34.61.61,0,0,1-.21.24.89.89,0,0,1-.33.14,1.77,1.77,0,0,1-1.55-.36l.14-.23.18.15a1.36,1.36,0,0,0,.24.13l.27.08a1.66,1.66,0,0,0,.32,0,1,1,0,0,0,.53-.12.43.43,0,0,0,.19-.37.38.38,0,0,0-.06-.22.41.41,0,0,0-.16-.16,1.16,1.16,0,0,0-.27-.11,2.43,2.43,0,0,0-.37-.1,2.66,2.66,0,0,1-.39-.11.87.87,0,0,1-.29-.14.55.55,0,0,1-.17-.2.65.65,0,0,1-.06-.29.78.78,0,0,1,.08-.35.66.66,0,0,1,.21-.26,1,1,0,0,1,.32-.15,1.29,1.29,0,0,1,.4-.06,1.36,1.36,0,0,1,.51.09,1.47,1.47,0,0,1,.4.24Z"/><path class="cls-1" d="M123.47,103.28l-1.94,2.54h-2.09l1.14-2.54Z"/></g></g></svg>