<svg xmlns="http://www.w3.org/2000/svg" viewBox="0 0 190.77 130"><defs><style>.cls-1,.cls-2{fill:#fff;}.cls-2{fill-rule:evenodd;}</style></defs><g id="Capa_2" data-name="Capa 2"><g id="Capa_1-2" data-name="Capa 1"><path class="cls-1" d="M155.32,97A60.78,60.78,0,0,0,158,86.08a79.71,79.71,0,0,0-45.07,6.15l0,0h-.09A80.72,80.72,0,0,0,103.87,97Z"/><path class="cls-1" d="M94.23,97a80.21,80.21,0,0,0-42-11.85,81.46,81.46,0,0,0-16.3,1.69A62.4,62.4,0,0,0,38.47,97Z"/><path class="cls-1" d="M86.14,50.49,80.85,16.76a61.51,61.51,0,0,0-24,12.38l22.4,24.61A32.24,32.24,0,0,1,86.14,50.49Z"/><path class="cls-1" d="M64,81.2A32.75,32.75,0,0,1,64.81,74l-27-16.49a61.88,61.88,0,0,0-3,19c0,1.89.12,3.75.29,5.6A83.27,83.27,0,0,1,64,81.2Z"/><path class="cls-1" d="M96.6,48.75A32.29,32.29,0,0,1,105.39,50l5.27-33.67a61.8,61.8,0,0,0-14-1.66,62.76,62.76,0,0,0-9.36.78L92.52,49A32.25,32.25,0,0,1,96.6,48.75Z"/><path class="cls-1" d="M74.1,57.77l-22-24.15a62.11,62.11,0,0,0-11.95,17.7L67,67.68A32.8,32.8,0,0,1,74.1,57.77Z"/><path class="cls-1" d="M156.12,59.81,128.85,76.45a33.75,33.75,0,0,1,.41,5c0,.19,0,.38,0,.58a85.24,85.24,0,0,1,16.43-1.65,86.19,86.19,0,0,1,12.55,1c.12-1.6.24-3.2.24-4.83A62,62,0,0,0,156.12,59.81Z"/><path class="cls-1" d="M138.88,31.43A61.76,61.76,0,0,0,117,18.15l-5.37,34.27a32.28,32.28,0,0,1,5.14,3.33Z"/><path class="cls-1" d="M127.12,69.84,154,53.46a61.49,61.49,0,0,0-10.56-17.31L121.48,60.27A32.88,32.88,0,0,1,127.12,69.84Z"/><path class="cls-2" d="M79.19,80.45a10.35,10.35,0,0,0,.41-2l1.08-1.92-3,4.17-1.08,1.9-.07,2.76c1.28.4,2.55.82,3.81,1.27-.35-1.55-1-4.11-1.46-4.67C78.2,81.09,79,80.74,79.19,80.45Z"/><path class="cls-2" d="M96.6,53.05A28.33,28.33,0,0,0,68.27,81.38c0,.62,0,1.23.09,1.85,2.28.46,4.54,1,6.77,1.66l.19-2.26s-.55-2.49,0-2.84,2.14-2,2-3.16S75.8,71.48,76,69c0,0-.4.82,0,3.39,0,0,.31,3.55-1.29,4.91V79S75,83.2,74,83.74l-.16,0V81.35a7.55,7.55,0,0,1,0-7.14,19.31,19.31,0,0,0-1.07,2.48c-.15.61-.73-.93.42-3.08a11.73,11.73,0,0,0,1-2.47l.06-.21s0-3.21,4.34-4.81,6.86.23,8.12.38,4.35.06,4.35.06a15.13,15.13,0,0,1,4.14-2.25s5.34-5.69,11.88-5.11a3.85,3.85,0,0,0,1.16-1.05c.3-.52.33.79.33.79l.75-.91s.44.88-.87,2l.94,1.69,1.74,4.82s.5,1.28-1.11,1.57-1.31-.67-1.28-.78-3.12-2.57-3.12-2.57l-.7-.18a28.82,28.82,0,0,0-3,5.68c-1.47-.06-3.85-.08-7.52.09h-.2a2.8,2.8,0,0,1-.38-.06,7.22,7.22,0,0,0-2.29-.16,8.72,8.72,0,0,0-3.76,1.55A2.85,2.85,0,0,0,86,74.13c-1.32-.62-3-1-4,0l1.46-.46L82,77.65,80.88,82l1.05,5.18q3.24,1.24,6.39,2.76a26.77,26.77,0,0,0-.23-3.42,6.41,6.41,0,0,1,0-2.66,8.38,8.38,0,0,0,.14-3.23,13.09,13.09,0,0,1-.57-3,4.88,4.88,0,0,0-.33-1.73L87,78.13,86.73,82,86.62,84a7.63,7.63,0,0,0,.32,1.1,3.35,3.35,0,0,1,.34,2.1l-.07,1.9s-.31,0-.19-.91c0,0,0-.93-.21-1.07l0,.75a2,2,0,0,1,.12,1.1l-.11-.07-.06-.67-.39-.39,0-.29-.05,1.22L86,88.61V87.3l-.08-.09-.06,1.05-.18.2h0V85.27l.19-1,.08-.5.74-9.09s-.3-1.22,1.53-2.24A8.42,8.42,0,0,1,91.65,71a10.84,10.84,0,0,1,2.61.21c.42,0,5.06-.25,8.24-.06l1.91,0a6.89,6.89,0,0,1,3.68-.29,7.52,7.52,0,0,0,5.7-2s.95-1.24,1.87-.45,1,1.07,1.11,1.29a19.36,19.36,0,0,0,2.39,1.69.74.74,0,0,1,.3,1.2s.4.3-.58.66a4.46,4.46,0,0,1-.79,0,.72.72,0,0,0-.68.2,4.88,4.88,0,0,1-2.53.55s-.42,0-.7.7-1.21,2.14-1.42,2.53a9.46,9.46,0,0,0-.63,2.71c-.09,1.08.17,1.46-.51,2.19a2.25,2.25,0,0,1-1.92.8l-.46,1.38a24,24,0,0,1-.48,2.58,14.44,14.44,0,0,0-.1,3,88.07,88.07,0,0,1,16.13-5.65c.09-.91.14-1.83.14-2.77A28.33,28.33,0,0,0,96.6,53.05Z"/><path class="cls-2" d="M107.33,90.3a9.43,9.43,0,0,0-.17-3c-.22-.71-.57-3-.57-3l-.45-1.93a5.37,5.37,0,0,0-1.5.16,15.27,15.27,0,0,1-3,.55,29.07,29.07,0,0,1-3.23.19c-1.49,0-1.7-.21-2-.35a1.16,1.16,0,0,0-.3-.1l-.59,1.08a2.57,2.57,0,0,1-.52.66,3.51,3.51,0,0,1-.4.27c-.07,0-.31.11-.28.23s.23.59.07.81-.64-.2-.64-.45l-.42.18s0,.37,0,.42a.36.36,0,0,1-.13.26h-.06c-.22,0-.27-.07-.34-.26a1.91,1.91,0,0,1-.06-.33,2.44,2.44,0,0,0,0-.28l-.49-.18a3.79,3.79,0,0,1-.2.34c-.1.13-.3.25-.39,0s.07-.45.09-.59l-.18-.1s-.34-.25-.36-.34,0-.14,0-.21l-.18.31c-.39.74-1,1.85-1,1.85l-.24.63a7.92,7.92,0,0,0-.05,2.65,9.53,9.53,0,0,0,.41,1.1,85,85,0,0,1,8.14,4.75,79.58,79.58,0,0,1,9-5.14A.81.81,0,0,1,107.33,90.3Z"/><path class="cls-1" d="M19.24,78.75v-.11a2.84,2.84,0,0,1,.32-1.34,4.14,4.14,0,0,1,.31-.46l.27-.3a3.77,3.77,0,0,1,.46-.36,1.25,1.25,0,0,1,.27-.15h0l.4.83a2.43,2.43,0,0,0-.49.35,2,2,0,0,0-.62,1.46h0A1.93,1.93,0,0,0,20.7,80a1.44,1.44,0,0,0,.32.26,1.81,1.81,0,0,0,1,.27,1.14,1.14,0,0,0,.88-.36,2.07,2.07,0,0,0,.39-.6,9.86,9.86,0,0,0,.55-1.91,3.11,3.11,0,0,1,.21-.57,2.46,2.46,0,0,1,.39-.58,2.56,2.56,0,0,1,.33-.31,2,2,0,0,1,.29-.19,2.62,2.62,0,0,1,1.23-.34h.1a3,3,0,0,1,1.4.33,2.75,2.75,0,0,1,1.26,1.4,3.32,3.32,0,0,1,.23,1.07v.12A3.05,3.05,0,0,1,29,80a4.38,4.38,0,0,1-.29.48,3.54,3.54,0,0,1-.67.67,3.34,3.34,0,0,1-.57.36l-.27.13-.38-.85a3.47,3.47,0,0,0,.6-.34,3,3,0,0,0,.34-.3,1.85,1.85,0,0,0,.34-.47,2.07,2.07,0,0,0,.26-1v0a2.07,2.07,0,0,0-.41-1.2,1.55,1.55,0,0,0-.26-.29,1.76,1.76,0,0,0-.7-.37,2.61,2.61,0,0,0-.6-.08h0a1.66,1.66,0,0,0-1.18.5,1.72,1.72,0,0,0-.27.39c0,.07-.07.16-.11.28s-.08.32-.17.69a7.51,7.51,0,0,1-.56,1.69,2.15,2.15,0,0,1-2,1.31H22A2.67,2.67,0,0,1,20.44,81a3.34,3.34,0,0,1-.36-.28,2.49,2.49,0,0,1-.34-.41,2.6,2.6,0,0,1-.32-.62A2.8,2.8,0,0,1,19.24,78.75Z"/><path class="cls-1" d="M23.08,69.72a2.41,2.41,0,0,1,1.28-2h.05l-1-.11h0l.09-.89,0,0,6.29.63,0,0-.09.89h0l-1-.1h0a2.39,2.39,0,0,1,.89,2.26h0a2.94,2.94,0,0,1-1.26,2.13,3.23,3.23,0,0,1-2.22.59H26A3.27,3.27,0,0,1,23.81,72,3,3,0,0,1,23.08,69.72Zm3,2.51h0a2.33,2.33,0,0,0,1.94-.7,2,2,0,0,0,.55-1.19,2,2,0,0,0-1.22-2.12,2.33,2.33,0,0,0-.81-.22l-.15,0a2.4,2.4,0,0,0-1.24.24A1.87,1.87,0,0,0,24,69.79,2.11,2.11,0,0,0,25.15,72,2.51,2.51,0,0,0,26.06,72.23Z"/><path class="cls-1" d="M20.71,62.46l.18-.89h0l9.6,1.87h0l-.17.9h0l-9.6-1.87Z"/><path class="cls-1" d="M25,58.65l.24-.85h0l3.84,1.12a1.3,1.3,0,0,0,1.6-.69,2.81,2.81,0,0,0,.26-.7,2.21,2.21,0,0,0,.12-1,1.3,1.3,0,0,0-.47-.85,2.3,2.3,0,0,0-.56-.25l-3.77-1.11h0l.25-.86,0,0,6,1.75,0,0-.25.85h0l-.59-.17a2.46,2.46,0,0,1,.19,2,3,3,0,0,1-1,1.63,2.15,2.15,0,0,1-2,.35L25,58.68Z"/><path class="cls-1" d="M26.68,43.9l.36-.82h0L36,47v0l-.36.82h0l-1-.42h0a2.4,2.4,0,0,1,.16,2.42h0A3,3,0,0,1,33,51.5a3.27,3.27,0,0,1-2.29-.13l-.08,0a3.25,3.25,0,0,1-1.7-1.72,3,3,0,0,1,0-2.43,2.42,2.42,0,0,1,1.83-1.47h0l-4.1-1.79ZM31,50.5h0a2.28,2.28,0,0,0,2.05-.07,2,2,0,0,0,.9-1,2,2,0,0,0-.52-2.39,2.3,2.3,0,0,0-.7-.46l-.13-.06a2.44,2.44,0,0,0-1.26-.16,1.9,1.9,0,0,0-1.56,1.14,2.12,2.12,0,0,0,.41,2.4A2.53,2.53,0,0,0,31,50.5Z"/><path class="cls-1" d="M34.57,36.68a5,5,0,0,1,.75.14l4.6,1s-.36-.58-1-1.65c-1.28-2-1.91-3-1.91-3l.56-.83h0l4.87,7.58.55.86-.56.83h0l-1.77-2.73L34,37.54h0Z"/><path class="cls-1" d="M40.18,23.82l.62-.63h0L44,26.35h0a2.58,2.58,0,0,1,0-.83,2.44,2.44,0,0,1,.73-1.45,3,3,0,0,1,2.83-.84,3.27,3.27,0,0,1,1.63.87l.1.1a3.23,3.23,0,0,1,.94,2.21A3.28,3.28,0,0,1,50,27.47a3,3,0,0,1-.69,1.12h0l0,0a2.38,2.38,0,0,1-2.3.73h0l.74.73v0l-.62.63h0l-6.9-6.9Zm5.3,3.94.06,0a2.4,2.4,0,0,0,2,.73,2,2,0,0,0,1.16-.63A2.06,2.06,0,0,0,49.2,26a2.39,2.39,0,0,0-.61-1.11l-.08-.08a2.33,2.33,0,0,0-1.82-.67,2.12,2.12,0,0,0-1.35.66A2,2,0,0,0,45,27,2.44,2.44,0,0,0,45.48,27.76Z"/><path class="cls-1" d="M47.68,16.81l0,0a.65.65,0,0,1,.49-.13.7.7,0,0,1,.41.23l0,0a.68.68,0,0,1,.14.54.69.69,0,0,1-.22.38l0,0A.59.59,0,0,1,48,18a.64.64,0,0,1-.35-.2l0,0a.66.66,0,0,1-.14-.5A.59.59,0,0,1,47.68,16.81Zm1.86,2.92.7-.58h0l4,4.89h0l-.71.58h0l-4-4.89Z"/><path class="cls-1" d="M55.13,15.41a2.9,2.9,0,0,1,2.62-.31,3.31,3.31,0,0,1,1.58,1.17l.05.07c.11.17.16.26.14.28l-4.14,2.84a2.49,2.49,0,0,0,.72.59,2.2,2.2,0,0,0,1.54.21,2.16,2.16,0,0,0,.61-.27,2,2,0,0,0,.84-1.54,2.47,2.47,0,0,0,0-.6h0q.57-.13.9-.18a3,3,0,0,1,0,1.18,2.83,2.83,0,0,1-1.2,1.91,3,3,0,0,1-2.64.33,3.38,3.38,0,0,1-1.64-1.27l0-.05a3.31,3.31,0,0,1-.54-2.46A2.88,2.88,0,0,1,55.13,15.41Zm-.2,3.23,3.26-2.24a2.28,2.28,0,0,0-1.5-.53,1.88,1.88,0,0,0-1,.34,2,2,0,0,0-.84,1.68A2.19,2.19,0,0,0,54.93,18.64Z"/><path class="cls-1" d="M63,10.8l.1-.05a2.46,2.46,0,0,1,2.88.13,2.33,2.33,0,0,1,.56.72l1.84,3.55v0l-.79.41,0,0L65.67,12a1.28,1.28,0,0,0-1.49-.7,2.92,2.92,0,0,0-.85.34,1.88,1.88,0,0,0-.94.87,1.23,1.23,0,0,0,.07,1.21l1.81,3.51v0l-.79.4h0l-2.86-5.53v0l.79-.41h0l.29.56A2.39,2.39,0,0,1,63,10.8Z"/><path class="cls-1" d="M71.21,7.08a2.91,2.91,0,0,1,2.61.34,3.33,3.33,0,0,1,1.25,1.52l0,.08c.07.19.09.29.07.3l-4.71,1.74a2.32,2.32,0,0,0,.56.76,2.14,2.14,0,0,0,1.43.58,2.39,2.39,0,0,0,.66-.11A2,2,0,0,0,74.31,11a2.38,2.38,0,0,0,.1-.59h0c.38,0,.68,0,.91,0a3,3,0,0,1-.27,1.15,2.83,2.83,0,0,1-1.63,1.56,2.94,2.94,0,0,1-2.64-.33,3.41,3.41,0,0,1-1.29-1.63l0,0a3.32,3.32,0,0,1,.08-2.53A2.88,2.88,0,0,1,71.21,7.08Zm-1,3.08,3.72-1.37a2.25,2.25,0,0,0-1.33-.88,1.88,1.88,0,0,0-1.1.07A2,2,0,0,0,70.28,9.4,2.42,2.42,0,0,0,70.22,10.16Z"/><path class="cls-1" d="M79.14,4.61l.09,0a2.68,2.68,0,0,1,1.32,0,2.88,2.88,0,0,1,.48.18,3.16,3.16,0,0,1,.4.25c.08.07.13.11.13.13-.33.32-.55.53-.66.65h0a1.35,1.35,0,0,0-.43-.25,1.76,1.76,0,0,0-1.07,0,1.8,1.8,0,0,0-1,.61.79.79,0,0,0-.15.64.43.43,0,0,0,.28.32.79.79,0,0,0,.23.07,5,5,0,0,0,1,.08l.85,0a3.13,3.13,0,0,1,.58,0,2.37,2.37,0,0,1,.45.15,1.55,1.55,0,0,1,.29.17,1.56,1.56,0,0,1,.63.9v0a1.73,1.73,0,0,1-.15,1.19,2.07,2.07,0,0,1-.2.32,2.54,2.54,0,0,1-.32.33,3.12,3.12,0,0,1-1.19.6l-.08,0a3,3,0,0,1-1.46,0A2.64,2.64,0,0,1,78,10.19l.32-.3.35-.33a1.74,1.74,0,0,0,1,.53,2.28,2.28,0,0,0,.78-.05,2,2,0,0,0,1-.52,1,1,0,0,0,.18-.23.9.9,0,0,0,.09-.59.8.8,0,0,0-.7-.55,2.15,2.15,0,0,0-.41,0,9.62,9.62,0,0,1-1.71,0A1.56,1.56,0,0,1,77.33,7V7a1.62,1.62,0,0,1,.18-1.2,1.29,1.29,0,0,1,.23-.33A2.06,2.06,0,0,1,78.33,5,2.85,2.85,0,0,1,79.14,4.61Z"/><path class="cls-1" d="M84.43.13,85.34,0h0l.5,3.39,1.69-.25h0l.14.92h0L86,4.34,86.52,8a.87.87,0,0,0,.21.48.74.74,0,0,0,.41.21h.23A2.16,2.16,0,0,0,88,8.38l.07-.05c.3.47.47.73.5.8a2.4,2.4,0,0,1-.35.2,2.72,2.72,0,0,1-.7.25h-.11a1.47,1.47,0,0,1-.76-.09,1.55,1.55,0,0,1-.85-.72,2.49,2.49,0,0,1-.23-.73l-.53-3.58-1,.15h0l-.14-.92h0l1-.15Z"/><path class="cls-1" d="M93.6,2.61a2.42,2.42,0,0,1,2.12,1l0,0h0l0-1,0,0,.89,0,0,0,.24,6.32v0l-.9,0v0l0-1h0a2.4,2.4,0,0,1-2.11,1.2h0a3,3,0,0,1-2.29-1A3.25,3.25,0,0,1,90.6,6V5.93a3.27,3.27,0,0,1,.81-2.28A3,3,0,0,1,93.6,2.61Zm-2.08,3.3v0a2.31,2.31,0,0,0,1,1.82,2,2,0,0,0,1.25.39,2,2,0,0,0,1.93-1.5,2.48,2.48,0,0,0,.12-.84V5.66a2.5,2.5,0,0,0-.41-1.2,1.89,1.89,0,0,0-1.7-.9,2.09,2.09,0,0,0-2,1.41A2.45,2.45,0,0,0,91.52,5.91Z"/><path class="cls-1" d="M103,2.83a2.41,2.41,0,0,1,1.2.4l-.27,1h0a2.1,2.1,0,0,0-1.06-.42,1.57,1.57,0,0,0-1.62.92,1.42,1.42,0,0,0-.13.5l-.28,3.87,0,0L100,9l0,0,.44-6.22,0,0,.89.07,0,0,0,.54h0a1.5,1.5,0,0,1,.89-.51A3.15,3.15,0,0,1,103,2.83Z"/><path class="cls-1" d="M115,4.87v0h0a3,3,0,0,1,1.8,1.35,3.5,3.5,0,0,1,.41,1.08,3.38,3.38,0,0,1,0,1.39l0,.14a3.34,3.34,0,0,1-1.45,2,3.05,3.05,0,0,1-2.37.34,2.47,2.47,0,0,1-1.75-1.56v0h0l-1,3.8h0l-.86-.22v0L112,4.27h0l.86.22v0l-.23.92A2.44,2.44,0,0,1,115,4.87Zm-2.85,2.62v.07a2.41,2.41,0,0,0,.18,1.65,1.85,1.85,0,0,0,1.24,1,2.08,2.08,0,0,0,2.21-.7,2.35,2.35,0,0,0,.5-.93l0-.1A2.34,2.34,0,0,0,116,6.72a2,2,0,0,0-1.23-.92,2,2,0,0,0-2.26.86A2.84,2.84,0,0,0,112.15,7.49Z"/><path class="cls-1" d="M123.89,7.79a2.41,2.41,0,0,1,1.52,1.78v0h0l.39-1h0l.83.33V9l-2.36,5.86h0l-.83-.33v0l.38-1h0a2.4,2.4,0,0,1-2.42.22h0A3,3,0,0,1,119.7,12a3.3,3.3,0,0,1,.06-2.3l0-.08a3.24,3.24,0,0,1,1.67-1.75A3,3,0,0,1,123.89,7.79ZM120.64,10v0a2.29,2.29,0,0,0,.13,2,1.93,1.93,0,0,0,1,.87,2,2,0,0,0,2.38-.58,2.45,2.45,0,0,0,.44-.72l.06-.13a2.6,2.6,0,0,0,.12-1.27,1.92,1.92,0,0,0-1.18-1.52,2.12,2.12,0,0,0-2.39.48A2.61,2.61,0,0,0,120.64,10Z"/><path class="cls-1" d="M132.4,11.87a2.35,2.35,0,0,1,.93.86l-.65.78h0a2.19,2.19,0,0,0-.79-.83,1.57,1.57,0,0,0-1.85.17,1.3,1.3,0,0,0-.33.41l-1.84,3.41h0l-.78-.42v0l3-5.49h0l.78.43v0l-.26.48h0a1.58,1.58,0,0,1,1-.1A3.58,3.58,0,0,1,132.4,11.87Z"/><path class="cls-1" d="M138.31,15.54a2.42,2.42,0,0,1,1.09,2.08v0h0l.6-.85h0l.73.51v0l-3.6,5.2h0l-.74-.51v0l.59-.84h0a2.39,2.39,0,0,1-2.41-.32h0a3,3,0,0,1-1.26-2.14,3.28,3.28,0,0,1,.57-2.23l0-.07a3.26,3.26,0,0,1,2-1.34A3,3,0,0,1,138.31,15.54Zm-3.64,1.39,0,0a2.35,2.35,0,0,0-.33,2,2.06,2.06,0,0,0,3.22,1,2.58,2.58,0,0,0,.59-.6l.08-.12a2.55,2.55,0,0,0,.4-1.21,1.9,1.9,0,0,0-.82-1.74,2.1,2.1,0,0,0-2.43-.07A2.43,2.43,0,0,0,134.67,16.93Z"/><path class="cls-1" d="M149.12,24.65a2.89,2.89,0,0,1,.77,2.52,3.45,3.45,0,0,1-.88,1.77L149,29c-.15.15-.23.21-.25.19l-3.52-3.59a2.65,2.65,0,0,0-.46.82,2.17,2.17,0,0,0,.06,1.55,2.27,2.27,0,0,0,.37.56,2,2,0,0,0,1.67.56,2.15,2.15,0,0,0,.58-.15h0c.15.36.26.64.33.86a3.2,3.2,0,0,1-1.15.22,2.86,2.86,0,0,1-2.1-.84,2.92,2.92,0,0,1-.78-2.55,3.38,3.38,0,0,1,1-1.84l0,0a3.31,3.31,0,0,1,2.34-1A2.88,2.88,0,0,1,149.12,24.65Zm-3.21.36,2.77,2.83a2.21,2.21,0,0,0,.26-1.58,1.83,1.83,0,0,0-.51-1,2,2,0,0,0-1.8-.54A2.4,2.4,0,0,0,145.91,25Z"/><path class="cls-1" d="M155.86,27.07l.58.71h0L148.88,34h0l-.58-.7h0l7.56-6.21Z"/><path class="cls-1" d="M160.28,39.29l.06.1a2.67,2.67,0,0,1,.25,2.38,2.6,2.6,0,0,1,1.84,1.47l.09.16a2.5,2.5,0,0,1,0,2.78,2.45,2.45,0,0,1-.75.65l-3.56,1.94h0l-.42-.79v0L161.34,46a1.28,1.28,0,0,0,.67-1.27,2.31,2.31,0,0,0-.29-.86l-.11-.2a1.56,1.56,0,0,0-1.52-1,1.36,1.36,0,0,0-.59.21l-3.45,1.87h0l-.43-.79v0L159.12,42a1.3,1.3,0,0,0,.67-1.51,3.14,3.14,0,0,0-.35-.84,2,2,0,0,0-.9-.92,1.26,1.26,0,0,0-1.21.09l-3.47,1.89h0l-.43-.78v0l5.47-3h0l.43.78v0l-.55.29A2.41,2.41,0,0,1,160.28,39.29Z"/><path class="cls-1" d="M165.28,49.54l.3.83v0l-3.78,1.33a1.31,1.31,0,0,0-.89,1.5,3.5,3.5,0,0,0,.19.72,2.19,2.19,0,0,0,.51.89,1.28,1.28,0,0,0,.88.42,2.68,2.68,0,0,0,.59-.12l3.71-1.31h0l.3.84v0l-5.87,2.07h0l-.29-.85v0l.59-.2a2.49,2.49,0,0,1-1.31-1.49,2.91,2.91,0,0,1-.13-1.9,2.13,2.13,0,0,1,1.4-1.44l3.8-1.35Z"/><path class="cls-1" d="M168.74,61.08l0,.11a2.49,2.49,0,0,1-.88,2.76,2.62,2.62,0,0,1-.84.35l-3.91.85,0,0-.19-.87v0l3.91-.85a1.28,1.28,0,0,0,1.07-1.25,3,3,0,0,0-.1-.91,1.83,1.83,0,0,0-.61-1.13,1.21,1.21,0,0,0-1.18-.25l-3.86.84,0,0L162,59.8v0l6.08-1.32h0l.19.87,0,0-.61.13A2.39,2.39,0,0,1,168.74,61.08Z"/><path class="cls-1" d="M173.77,72.17l.08.89,0,0-9.72.86,0,0L164,73v0l1-.09h0a2.39,2.39,0,0,1-1.29-2.06h0a3,3,0,0,1,.85-2.33,3.27,3.27,0,0,1,2.07-1h.08a3.26,3.26,0,0,1,2.32.69,3,3,0,0,1,1.15,2.15,2.41,2.41,0,0,1-.9,2.16l0,0h0l4.46-.39Zm-6.94-3.73h0a2.34,2.34,0,0,0-1.77,1,2,2,0,0,0-.33,1.27,2,2,0,0,0,1.6,1.86,2.66,2.66,0,0,0,.84.07l.14,0a2.46,2.46,0,0,0,1.18-.46,1.9,1.9,0,0,0,.83-1.74,2.14,2.14,0,0,0-1.52-1.92A2.57,2.57,0,0,0,166.83,68.44Z"/><path class="cls-1" d="M170.47,79.79V80a2.9,2.9,0,0,1-.86,1.91,3.37,3.37,0,0,1-4.91-.23,3,3,0,0,1-.69-2,3,3,0,0,1,.93-2,3.31,3.31,0,0,1,2.38-.9h.08a3.32,3.32,0,0,1,2.29,1.06A2.93,2.93,0,0,1,170.47,79.79Zm-3.15-2.15h0a2.33,2.33,0,0,0-1.69.64,2,2,0,0,0-.65,1.4,2.09,2.09,0,0,0,.86,1.74,2.43,2.43,0,0,0,1.36.47,2.33,2.33,0,0,0,1.78-.69,2,2,0,0,0,.59-1.32v-.1a2,2,0,0,0-.64-1.49A2.4,2.4,0,0,0,167.32,77.64Z"/><path class="cls-1" d="M7.61,117.12A7.77,7.77,0,0,1,4.17,116a1.18,1.18,0,0,0-1.63.14c-.11.11-.54.55-.91.26-.61-.44-1.08-.8-1.41-1.09s-.29-.54,0-.9a3.8,3.8,0,0,1,4.19-1.49,7.8,7.8,0,0,1,1.67.69l.76.47a1.38,1.38,0,0,0,1.56-.11,1.72,1.72,0,0,1,.9-.5c.18,0,.36.1.83.5a4,4,0,0,1,.73.54.66.66,0,0,1,.07,1A3.83,3.83,0,0,1,7.61,117.12Zm4.05-.84-.4-.32a4.4,4.4,0,0,1-3.65,1.81,8.33,8.33,0,0,1-3.77-1.23c-.43-.26-.58-.26-.83,0a1.29,1.29,0,0,1-1.77.29c-.19-.14-.33-.25-.51-.36-.22.36-.22.62.07.87a9.1,9.1,0,0,0,1.05.83c.51.37.91.37,1.27,0,.65-.72.61-.72,1.45-.32a10.78,10.78,0,0,0,3.87,1.05,3.83,3.83,0,0,0,3.29-1.7A.65.65,0,0,0,11.66,116.28Z"/><path class="cls-1" d="M29.36,127.87c-.32.32-2.89.22-3.18.22a1.13,1.13,0,0,1-.73-.26c-.32-.29-.36-.83-.5-2-.08-.54-.11-1-.18-1.27s-.11-2.1-1.38-2.13a1.48,1.48,0,0,0-.29,0c-1.88,0-2.17.07-2.39,1.92,0,.29-.22,1.27-.51,2.93a.83.83,0,0,1-.9.8q-1.68.06-2.82,0c-1,0-.76-.8-.62-1.85.87-4.92,1.38-8,1.59-9.26a2.08,2.08,0,0,1,0-.26l-1.27-.76a.51.51,0,0,1-.32-.5.56.56,0,0,1,.32-.51l1.74-1c.8-4.49,1.34-7.75,1.67-9.74.21-1.2.5-1.41,1.66-1.41h3.29a1.77,1.77,0,0,1,.8.21,3.49,3.49,0,0,1,.51,1.49c1,6,1.55,9.19,1.59,9.48l1.7,1a.58.58,0,0,1,.29.51.53.53,0,0,1-.29.5l-1.23.73c1,5.9,1.52,9,1.56,9.26C29.69,127,29.65,127.61,29.36,127.87ZM24,124.21c-1.45,0-1.52.26-1.74,1.92,0,.29-.07.62-.36,2.24a1.58,1.58,0,0,1-1.59,1.49c-1.12,0-1.3,0-2.06,0s-.8-.47-.73-1.12h.18c.47,0,1,0,1.56,0a1.48,1.48,0,0,0,1.56-1.3l.29-1.56c.1-.8.21-1.23.21-1.45s.15-1,.33-1.19a4.42,4.42,0,0,1,1.41-.11h.14l0,0h.07C23.5,123.13,23.86,123.13,24,124.21Zm-.25-6.88c-.07-.65-.47-2.57-.47-2.67a3,3,0,0,0-.22-.55.42.42,0,0,0-.76,0,13.22,13.22,0,0,0-.58,3.33,2.21,2.21,0,0,0,0,.47c0,.55,2,.51,2.1,0C23.82,117.88,23.82,117.66,23.79,117.33Zm-1.05.29h-.33v-.14a17.34,17.34,0,0,1,.29-2.24,1.94,1.94,0,0,1,.07.32c.11.58.29,1.49.33,1.85v.18A1.2,1.2,0,0,1,22.74,117.62ZM28,106.29c.61,3.73,1.08,6.41,1.34,7.93-.4-.22-.84-.51-1.23-.72-.11-.65-.4-2.21-.84-4.93-.21-1.15-.43-2.49-.68-4a1.27,1.27,0,0,1,.9.22A3.4,3.4,0,0,1,28,106.29Zm3.58,23.21c-.47.4-.65.4-3.58.4a1,1,0,0,1-.73-.26,1.33,1.33,0,0,1-.36-.9c.11,0,.25,0,.4,0,1.7,0,2.46,0,2.89-.5.26-.29.19-1.13,0-2.46,0-.15-.11-.58-.29-1.78-.25-1.41-.65-3.8-1.2-7l.84-.51A1.64,1.64,0,0,0,30,116l1.34.76a.58.58,0,0,1,.29.51.53.53,0,0,1-.29.5l-1.26.73c1,5.9,1.52,9,1.55,9.26C31.82,128.77,31.86,129.24,31.57,129.5Z"/><path class="cls-1" d="M45.83,119.4a18.74,18.74,0,0,1-.07,4.09c-1,5.07-7.64,7.09-11.37,2a4.47,4.47,0,0,1-.76-2.83c0-11.55,0-13.36,0-14.33a5.88,5.88,0,0,1,3.8-5.47,3.4,3.4,0,0,1,1.23-.25c1,0,1.81,0,2.28,0a3.87,3.87,0,0,1,1,.18A8.39,8.39,0,0,1,45,105.39c1.09,1.3.91,4.13.87,5.21,0,.87-.29,1.09-1.16,1.09s-1.48,0-2.24,0c-1-.07-.84-.22-.87-2.5a2.22,2.22,0,0,0-2-2.32,1.74,1.74,0,0,0-1.31.62,3.28,3.28,0,0,0-.65,2.53c0,4.2,0,7.68,0,10.5a7.88,7.88,0,0,0,.08,1.41,2,2,0,0,0,1.77,2,2.17,2.17,0,0,0,2.1-2.31v-2c.07-.79.25-1,1-1s1.59,0,2.43,0A.76.76,0,0,1,45.83,119.4Zm-7-11.48c-.51.58-.48,1.16-.48,2.1,0,4.2,0,7.68,0,10.5a6.32,6.32,0,0,0,.08,1.3v0c.11.83.54,1.34,1.12,1.41a8.87,8.87,0,0,1,0-1c0-2.82,0-7.49,0-11.69,0-1.3.11-2.35.87-2.72a1.16,1.16,0,0,0-.72-.29A1,1,0,0,0,38.78,107.92Zm8,12.35h-.26a14.5,14.5,0,0,1-.11,3.33A6.65,6.65,0,0,1,38.7,129c-.4-.07-.43.18-.07.29,3.55,1.05,7.53-.72,8.47-4.09a11.06,11.06,0,0,0,.51-4.09A.78.78,0,0,0,46.78,120.27Zm-.26-9.63c0,1.55-.07,1.74-3.11,1.74,0,.86.14,1,.87,1a15.37,15.37,0,0,0,1.92,0,1.27,1.27,0,0,0,1.34-1.3,11.09,11.09,0,0,0-.8-5c-.07-.14-.22-.4-.33-.4s-.11.11,0,.47A15.17,15.17,0,0,1,46.52,110.64Z"/><path class="cls-1" d="M62.92,126.09a5.89,5.89,0,0,1,.25,1.24.58.58,0,0,1-.54.72,19.38,19.38,0,0,1-3.26,0c-.79-.11-.9-1-1.12-2-.11-.54-.36-1.52-.72-2.93l-.69-2.93c-.15-.69-.33-1.63-1.38-1.49s-1,1.12-1,2.25v5.1c0,1.09.14,1.92-.87,2-.83,0-1.7,0-2.57,0s-.83-.91-.83-2.1v-21.4c0-.9.07-1.45.25-1.63s1.38-.25,3.48-.25h1.92a10.24,10.24,0,0,1,3.11.43,4.53,4.53,0,0,1,3.47,4.2c0,1,0,3.12,0,6.45a4.21,4.21,0,0,1-1,2.57,2.48,2.48,0,0,0-.39,2.28C61.29,119.8,61.94,122.26,62.92,126.09Zm-7.38-6.66c-.37,0-.4.18-.44,1.6v5.1c0,1,.25,2.53-1.48,2.61-.55,0-1.09,0-1.63,0,0,.65.14,1.09.83,1.13.87,0,1.74,0,2.57,0,1,0,.87-.87.87-2v-5.1a7,7,0,0,1,.14-1.56l-.21-.87C56,119.51,55.93,119.36,55.54,119.43Zm2.86-7.05v-3.26a1.89,1.89,0,0,0-1.74-2,2.93,2.93,0,0,1-.54-.11c-2-.25-1.63.73-1.63,3.73,0,1.6,0,2.61,0,2.68a1.1,1.1,0,0,0,.91,1.16,2.33,2.33,0,0,0,2.89-1.81C58.36,112.59,58.4,112.45,58.4,112.38Zm-2.1.21c0-2.89-.18-4,.61-4.74a4.16,4.16,0,0,0-.9-.14c-.47-.08-.69-.11-.8.07s-.07,1-.07,3c0,1.6,0,2.61,0,2.68,0,.58.51.65,1.13.54Zm8.47,17.27c1-.07.9-.91.61-2-1-3.8-1.63-6.29-1.95-7.45-.58-2.1-.87-2.64-.36-3.26a5.54,5.54,0,0,0,1.15-3.4c0-3.33,0-3.66,0-4.64a5,5,0,0,0-.87-2.49c-.18-.29-.28-.26-.28,0v.62c0,1,0,3.11,0,6.48a4.75,4.75,0,0,1-1.2,3,1.94,1.94,0,0,0-.29,1.7c.58,2.06,2,7.56,2.25,8.76.1.76.28,1.37-1.13,1.48a17.32,17.32,0,0,1-2.46.07c.15.62.36,1,.94,1.13A30.13,30.13,0,0,0,64.77,129.86Z"/><path class="cls-1" d="M79.1,124.57a14.46,14.46,0,0,1,0,2.72c-.08.87-.95.8-1.71.8H69.51a2.33,2.33,0,0,1-1.45-.29c-.32-.29-.29-.76-.29-2.1V104.63c0-1.81,0-1.88,1.81-1.88H77.4a2.81,2.81,0,0,1,1.48.25c.33.33.29,2.14.22,3s-.83.79-1.88.79H73.64c-1.2,0-1.52.4-1.6,1.53s0,2.42,0,3.58a1.6,1.6,0,0,0,.33,1c.43.4,1.23.36,2.35.36a10.38,10.38,0,0,1,1.27,0c.86,0,1.08.25,1.12,1.12a17.35,17.35,0,0,1,0,2.28c0,.51-.29.76-.8.8s-1.37,0-2.42,0c-1.38,0-1.74.18-1.81,1.74a28.36,28.36,0,0,0,0,3c.08,1.16.4,1.52,1.6,1.55h3.54C78.27,123.85,79,123.74,79.1,124.57Zm1.7,1.81c0-.61-.43-.72-1-.72a8.67,8.67,0,0,1-.07,1.7c-.15,1.49-1,1.38-2.36,1.38H69.58a1.27,1.27,0,0,0,.29.87,2.33,2.33,0,0,0,1.45.29l7,0C80.51,129.82,80.8,129.14,80.8,126.38Zm-3-9.62c-.07,1.23-.18,1.44-1.41,1.44H73.89c-.8,0-1.12.33-1.16,1.13a25.58,25.58,0,0,0,0,2.89c0,.83.15.91,1,.94h.18c0-.76,0-1.84,0-2.46.07-1.56.07-1.34,1.44-1.34,1,0,1.89,0,2.43,0a1.09,1.09,0,0,0,1.09-.87,15.28,15.28,0,0,0,0-2.24c0-.87-.11-1.12-1-1.12C77.84,115.71,77.8,116.25,77.76,116.76ZM79.83,106c0,1.56-1,1.42-2.61,1.42H73.64c-.76,0-.87.1-.91.9,0,1.23,0,2.21,0,3.51,0,.8.18.76,1.12.8,0-.83,0-2,0-2.86.08-1.12,0-1.2,1.23-1.2H78.6c1.23,0,2-.32,2.09-1.33.08-.84.15-2.1-.18-2.43a1,1,0,0,0-.68-.22Z"/><path class="cls-1" d="M93,116a8.59,8.59,0,0,1,2.17,7.13,6.07,6.07,0,0,1-1.45,3.15c-1.63,1.91-2.17,1.95-4.6,1.95a6.34,6.34,0,0,1-3.76-1A4.58,4.58,0,0,1,84,126a9.64,9.64,0,0,1-1.55-3.8c-.08-.54-.18-1.45.58-1.56a21.11,21.11,0,0,1,2.42-.28c.73,0,1,.18,1.2.94,0,.07.07.21.1.47a4.31,4.31,0,0,0,.37,1,1.93,1.93,0,0,0,2.2,1.2,2.28,2.28,0,0,0,1.6-2.14c0-2.14-.73-2.46-2.61-4.38L86,115.27l-1-1a8.44,8.44,0,0,1-2.35-6.52A5.83,5.83,0,0,1,87,102.31c5.32-1.34,7.71,2.21,8.07,5.25a.65.65,0,0,1-.47.8,9.1,9.1,0,0,1-2.79.5.84.84,0,0,1-.87-.57l-.36-1c-.87-1.91-3.08-1.52-3.33.51a4.78,4.78,0,0,0,1.34,3.91C88.66,111.91,92.32,115.24,93,116Zm-5.61,12.66c-.62-.07-.66.11-.15.37a6.59,6.59,0,0,0,3,.76,5.81,5.81,0,0,0,4.89-2.39,5.28,5.28,0,0,0,1.41-2.86,7.15,7.15,0,0,0-.69-5.32c-.18-.33-.36-.22-.25.11a9.28,9.28,0,0,1,.25,3.87,6.6,6.6,0,0,1-1.59,3.51c-1.92,2.24-2.79,2.17-5.11,2.17A9,9,0,0,1,87.36,128.66Zm1.37-5.21a8.3,8.3,0,0,0-.36-1.41,1.19,1.19,0,0,0-1.16-.83,6.89,6.89,0,0,0,.44,1.3A2.51,2.51,0,0,0,88.73,123.45Zm1.41-15.38L90,107.6c-.58-1.41-1.95-1-2.13.32a4.31,4.31,0,0,0,1.34,3.59,7.75,7.75,0,0,1-.44-2.43C88.84,108.25,89.31,107.71,90.14,108.07Zm4.64.9a10.65,10.65,0,0,1-2.32.51l.07.22a.84.84,0,0,0,.87.58,8.84,8.84,0,0,0,2.79-.51.65.65,0,0,0,.47-.8,6.55,6.55,0,0,0-.83-2.49c-.18-.29-.33-.22-.26.1a6.47,6.47,0,0,1,.11.87C95.68,108.29,95.46,108.72,94.78,109Z"/><path class="cls-1" d="M119.54,104a11.64,11.64,0,0,1,0,1.89c-.07.86-.83.76-1.74.76h-1.55l-1.56,0c-.94,0-2.1-.18-2.17,1.23,0,.37,0,1.38-.07,3a8.09,8.09,0,0,0,.07,1.16c.18,1.34.9,1.12,3.22,1.15,1.81,0,1.85.08,1.88,1.85,0,1.45.15,2.35-.87,2.39.08,0-.61,0-2,0a5,5,0,0,0-1.3.18c-.72.29-1,.76-1,2.28v6.11c0,2,0,2-2,2s-2,0-2-2v-9.41l-1.45-.83a.55.55,0,0,1-.29-.51.58.58,0,0,1,.29-.51l1.45-.83v-9.19a9.58,9.58,0,0,1,0-1.16c0-.8.26-1,1-1,.29,0,1.13,0,2.61,0h6.15C119.36,102.71,119.54,102.86,119.54,104Zm-.29,12.24c0-.87-.11-1.12-1-1.12,0,.58,0,1.12-.07,1.63-.07,1.23-.18,1.44-1.41,1.44h-2.47c-.79,0-1,.33-1.15,1.13a16.93,16.93,0,0,0-.11,2.64v4.12c0,2.57-.36,2.65-2.64,2.65h-.22c.07,1.16.36,1.16,2,1.16s2-.4,2-2v-7.2c0-1.56.1-1.34,1.48-1.34,1,0,1.88,0,2.43,0a1.08,1.08,0,0,0,1.08-.87A16.84,16.84,0,0,0,119.25,116.25Zm1-10.25c0,1.56-1,1.42-2.6,1.42h-3.59c-.76,0-.87.1-.9.9,0,1.23,0,2.21,0,3.51,0,.8.18.76,1.12.8,0-.83,0-2,0-2.86.07-1.12,0-1.2,1.23-1.2H119c1.23,0,2-.32,2.1-1.33.07-.84.15-2.1-.18-2.43a1.08,1.08,0,0,0-.69-.22Z"/><path class="cls-1" d="M134.13,127.87c-.33.32-2.9.22-3.19.22a1.1,1.1,0,0,1-.72-.26c-.33-.29-.36-.83-.51-2-.07-.54-.11-1-.18-1.27s-.11-2.1-1.38-2.13a1.48,1.48,0,0,0-.29,0c-1.88,0-2.17.07-2.38,1.92,0,.29-.22,1.27-.51,2.93a.85.85,0,0,1-.91.8q-1.68.06-2.82,0c-1,0-.76-.8-.62-1.85.87-4.92,3.44-20,3.77-22,.22-1.2.51-1.41,1.66-1.41h3.3a1.76,1.76,0,0,1,.79.21,3.36,3.36,0,0,1,.51,1.49c1,6,3.59,21.17,3.62,21.46C134.45,127,134.42,127.61,134.13,127.87Zm-5.32-3.66c-1.45,0-1.52.26-1.74,1.92,0,.29-.07.62-.36,2.24a1.58,1.58,0,0,1-1.6,1.49c-1.12,0-1.3,0-2.06,0s-.8-.47-.72-1.12h.18c.47,0,1,0,1.55,0a1.47,1.47,0,0,0,1.56-1.3l.29-1.56c.11-.8.22-1.23.22-1.45a2.78,2.78,0,0,1,.32-1.19,4.49,4.49,0,0,1,1.41-.11H128l0,0h.07C128.26,123.13,128.62,123.13,128.81,124.21Zm-.26-6.88c-.07-.65-.47-2.57-.47-2.67a2.4,2.4,0,0,0-.22-.55.42.42,0,0,0-.76,0,13.22,13.22,0,0,0-.58,3.33,2.93,2.93,0,0,0,0,.47c0,.55,2,.51,2.1,0A5,5,0,0,0,128.55,117.33Zm-1.05.29h-.32v-.14a17.34,17.34,0,0,1,.29-2.24c0,.1,0,.18.07.32.11.58.29,1.49.32,1.85v.18A1.17,1.17,0,0,1,127.5,117.62Zm8.83,11.88c-.47.4-.65.4-3.58.4a.93.93,0,0,1-.72-.26c-.22-.18-.29-.43-.36-.9.1,0,.25,0,.39,0,1.7,0,2.46,0,2.9-.5.25-.29.18-1.13,0-2.46,0-.15-.11-.58-.29-1.78-.29-1.63-2.28-13.36-2.6-15.46-.22-1.15-.44-2.49-.69-4a1.24,1.24,0,0,1,.9.22,3.27,3.27,0,0,1,.51,1.48s3.69,21.43,3.66,21.43C136.59,128.77,136.62,129.24,136.33,129.5Z"/><path class="cls-1" d="M151.47,126.09a7.53,7.53,0,0,1,.25,1.24.58.58,0,0,1-.54.72,19.4,19.4,0,0,1-3.26,0c-.8-.11-.91-1-1.12-2-.11-.54-.36-1.52-.73-2.93l-.68-2.93c-.15-.69-.33-1.63-1.38-1.49s-1,1.12-1,2.25v5.1c0,1.09.14,1.92-.87,2-.83,0-1.7,0-2.57,0s-.83-.91-.83-2.1v-21.4c0-.9.07-1.45.25-1.63s1.37-.25,3.47-.25h1.92a10.26,10.26,0,0,1,3.12.43,4.53,4.53,0,0,1,3.47,4.2c0,1,0,3.12,0,6.45a4.21,4.21,0,0,1-1.05,2.57,2.48,2.48,0,0,0-.4,2.28C149.84,119.8,150.49,122.26,151.47,126.09Zm-7.39-6.66c-.36,0-.4.18-.43,1.6v5.1c0,1,.25,2.53-1.49,2.61-.54,0-1.08,0-1.62,0,0,.65.14,1.09.83,1.13.87,0,1.74,0,2.57,0,1,0,.87-.87.87-2v-5.1a6.49,6.49,0,0,1,.14-1.56l-.22-.87C144.55,119.51,144.48,119.36,144.08,119.43Zm2.86-7.05v-3.26c-.07-1.16-.54-1.67-1.74-2a3.35,3.35,0,0,1-.54-.11c-2-.25-1.63.73-1.63,3.73,0,1.6,0,2.61,0,2.68a1.1,1.1,0,0,0,.9,1.16,2.34,2.34,0,0,0,2.9-1.81A3.83,3.83,0,0,0,146.94,112.38Zm-2.1.21c0-2.89-.18-4,.62-4.74a4.18,4.18,0,0,0-.91-.14c-.47-.08-.68-.11-.79.07s-.08,1-.08,3c0,1.6,0,2.61,0,2.68,0,.58.51.65,1.12.54Zm8.47,17.27c1-.07.91-.91.62-2-1.05-3.8-1.63-6.29-2-7.45-.58-2.1-.86-2.64-.36-3.26a5.49,5.49,0,0,0,1.16-3.4c0-3.33,0-3.66,0-4.64a5.18,5.18,0,0,0-.87-2.49c-.18-.29-.29-.26-.29,0v.62c0,1,0,3.11,0,6.48a4.79,4.79,0,0,1-1.19,3,1.91,1.91,0,0,0-.29,1.7c.58,2.06,2,7.56,2.24,8.76.11.76.29,1.37-1.12,1.48a17.32,17.32,0,0,1-2.46.07c.14.62.36,1,.94,1.13A30,30,0,0,0,153.31,129.86Z"/><path class="cls-1" d="M174.27,104.77V126c0,1,.08,2-.76,2.07a13.67,13.67,0,0,1-2.86,0c-.72-.08-.65-.91-.65-1.81l0-5c0-1.77-.08-2.57-.51-2.57s-.51.47-.72,1.52l-.8,4c-.25,1.24-.47,2.14-.62,2.79a1.88,1.88,0,0,1-.39.83,4.9,4.9,0,0,1-2.43.22c-.72,0-.94-.22-1.08-.9-.22-.94-.76-3.22-.91-3.73a31.36,31.36,0,0,0-1.27-4.82.3.3,0,0,0-.54,0,3.23,3.23,0,0,0-.18,1.27v6.15c0,1,.07,1.89-.83,2a17.13,17.13,0,0,1-2.68,0c-.87-.11-.76-.87-.76-2.06V104.81c0-1-.11-2,.79-2h4.42a.81.81,0,0,1,.8.72l.5,2.5,1.89,9.52a6.28,6.28,0,0,0,.25,1,.49.49,0,0,0,.94-.11s2.1-11.15,2.14-11.22c.29-1.63.18-2.39,1.26-2.39,1.63,0,3,0,4.13,0S174.27,103.72,174.27,104.77Zm-13.14,15.71.11,5.61c0,2.07.11,2.47-1.41,2.68a11.92,11.92,0,0,1-1.7,0c0,.65.14,1.05.76,1.12a10.26,10.26,0,0,0,2.35,0c1.23-.14,1.16-1.41,1.16-2.42v-2.07c-.18-.79-.36-1.55-.4-1.81l-.65-3.22C161.31,120.23,161.13,120.23,161.13,120.48Zm2.07-15.85,1.77,8.8c.11.54.22,1.41.29,1.84,0,.25.25.25.29,0l.36-2.17-1.59-7.86a.72.72,0,0,0-.8-.61Zm6.15,21.65.18-5.65c0-.22-.22-.25-.25,0l-.62,3.84c-.18,1.23-.47,2.13-.61,2.79a3.22,3.22,0,0,1-.58,1.26c-.33.33-1.12.33-2.21.33,0,.8.43,1.09,1.12,1.12a4.9,4.9,0,0,0,2.43-.22,1.88,1.88,0,0,0,.39-.83l.26-1.12A5,5,0,0,1,169.35,126.28Zm5.57-21.65V126c0,1.88.11,2.54-1.34,2.72a9.5,9.5,0,0,1-1.77.07c0,.58.15,1.05.65,1.09a12.78,12.78,0,0,0,2.32,0c.94-.07,1.3-1,1.3-2V106.58C176.08,105.21,176.23,104.63,174.92,104.63Z"/><path class="cls-1" d="M186.47,117.12A7.81,7.81,0,0,1,183,116a1.19,1.19,0,0,0-1.63.14c-.1.11-.54.55-.9.26a16,16,0,0,1-1.41-1.09c-.29-.25-.29-.54,0-.9a3.81,3.81,0,0,1,4.2-1.49,7.8,7.8,0,0,1,1.67.69l.76.47a1.36,1.36,0,0,0,1.55-.11,1.77,1.77,0,0,1,.91-.5c.18,0,.36.1.83.5a3.85,3.85,0,0,1,.72.54.66.66,0,0,1,.08,1A3.84,3.84,0,0,1,186.47,117.12Zm4.06-.84-.4-.32a4.41,4.41,0,0,1-3.66,1.81,8.29,8.29,0,0,1-3.76-1.23c-.44-.26-.58-.26-.83,0a1.31,1.31,0,0,1-1.78.29,5.2,5.2,0,0,0-.5-.36c-.22.36-.22.62.07.87a7.6,7.6,0,0,0,1.05.83c.5.37.9.37,1.26,0,.66-.72.62-.72,1.45-.32a10.78,10.78,0,0,0,3.88,1.05,3.84,3.84,0,0,0,3.29-1.7A.66.66,0,0,0,190.53,116.28Z"/></g></g></svg>