<svg xmlns="http://www.w3.org/2000/svg" viewBox="0 0 30.65 35.07"><defs><style>.cls-1{fill:#ff4cfe;}</style></defs><g id="Capa_2" data-name="Capa 2"><g id="Capa_1-2" data-name="Capa 1"><path class="cls-1" d="M30.58,8.54c0-.16,0-.16-.17-.16a7.86,7.86,0,0,1-1.19-.11c-1.42-.21-6-2.63-6.82-6.6A11.44,11.44,0,0,1,22.21.19c0-.19,0-.19-.19-.19H16.47c-.36,0-.31,0-.31.32V23.84a5.09,5.09,0,0,1-.06.87A5.09,5.09,0,0,1,10,28.87a7.2,7.2,0,0,1-1.19-.39l-.09-.09c-.13-.11-.28-.2-.42-.3a4.81,4.81,0,0,1-2.22-4.78,4.81,4.81,0,0,1,3.35-4.14,4.43,4.43,0,0,1,1.8-.26,5.18,5.18,0,0,1,1.18.18q.21.06.21-.15a.76.76,0,0,0,0-.15c0-1.41-.05-4.48-.06-4.49,0-.41,0-.81,0-1.22,0-.11-.06-.13-.16-.14a10.66,10.66,0,0,0-2.19,0A11.11,11.11,0,0,0,1,19.39a11.22,11.22,0,0,0-.46,7.87,11.09,11.09,0,0,0,3.76,5.4,2.5,2.5,0,0,0,.57.39h0l.28.25a5.8,5.8,0,0,0,.92.56A11,11,0,0,0,12.4,35a11,11,0,0,0,7.2-3.85,10.86,10.86,0,0,0,2.67-7.25c0-3.9,0-7.81,0-11.71,0-.1-.05-.23,0-.28s.16.07.24.12a14.32,14.32,0,0,0,4.71,2,13.82,13.82,0,0,0,3,.36c.32,0,.37,0,.37-.34C30.65,12.7,30.58,8.91,30.58,8.54Z"/></g></g></svg>