<svg xmlns="http://www.w3.org/2000/svg" viewBox="0 0 36.29 25.4"><defs><style>.cls-1{fill:#ff4cfe;}</style></defs><g id="Capa_2" data-name="Capa 2"><g id="Capa_1-2" data-name="Capa 1"><path class="cls-1" d="M35.53,4A4.53,4.53,0,0,0,32.33.76C29.5,0,18.15,0,18.15,0S6.8,0,4,.76A4.56,4.56,0,0,0,.76,4C0,6.8,0,12.7,0,12.7s0,5.91.76,8.74A4.56,4.56,0,0,0,4,24.65c2.83.75,14.18.75,14.18.75s11.35,0,14.18-.75a4.53,4.53,0,0,0,3.2-3.21c.76-2.83.76-8.74.76-8.74S36.29,6.8,35.53,4Zm-21,14.18V7.26L24,12.7Z"/></g></g></svg>