<svg xmlns="http://www.w3.org/2000/svg" viewBox="0 0 59.31 79.05"><defs><style>.cls-1{fill:#fff;}</style></defs><g id="Capa_2" data-name="Capa 2"><g id="formas"><path class="cls-1" d="M32.28,0c1.73.37,3.5.53,5.21,1A29.9,29.9,0,0,1,58.64,23.33,29.28,29.28,0,0,1,58,38.25a64.71,64.71,0,0,1-6.56,14.42A128.19,128.19,0,0,1,38.31,70.74c-2.13,2.5-4.32,5-6.64,7.28-1.36,1.36-2.67,1.37-4,0A145.91,145.91,0,0,1,11.88,58.9,83.34,83.34,0,0,1,2.66,42.11,33.41,33.41,0,0,1,0,28.44a29.68,29.68,0,0,1,12.59-23A29.09,29.09,0,0,1,25.37.29C25.93.21,26.48.1,27,0ZM44.44,29.62c-.2-8.25-6.37-14.7-14.74-14.73A14.49,14.49,0,0,0,14.93,29.62,14.48,14.48,0,0,0,29.62,44.35C37.9,44.38,44.23,38,44.44,29.62Z"/></g></g></svg>