<svg xmlns="http://www.w3.org/2000/svg" viewBox="0 0 37.1 23.25"><defs><style>.cls-1{fill:#ff4cfe;}</style></defs><g id="Capa_2" data-name="Capa 2"><g id="Capa_1-2" data-name="Capa 1"><path class="cls-1" d="M10.76,0a13.76,13.76,0,0,1,3,.29,6.54,6.54,0,0,1,2.3.94A4.43,4.43,0,0,1,17.53,3a6.13,6.13,0,0,1,.52,2.68,5,5,0,0,1-.78,2.87,5.72,5.72,0,0,1-2.33,1.89,5.42,5.42,0,0,1,3.14,2.12,6.37,6.37,0,0,1,1,3.66,6.27,6.27,0,0,1-.67,3,5.78,5.78,0,0,1-1.8,2.06A7.72,7.72,0,0,1,14,22.43a11.39,11.39,0,0,1-3,.39H0V0Zm-.65,9.22a3.62,3.62,0,0,0,2.21-.64,2.4,2.4,0,0,0,.86-2.08,2.68,2.68,0,0,0-.28-1.31,2.11,2.11,0,0,0-.78-.79A3.13,3.13,0,0,0,11,4a6.88,6.88,0,0,0-1.29-.11H5V9.22Zm.28,9.71a6.49,6.49,0,0,0,1.41-.14A3.45,3.45,0,0,0,13,18.31a2.52,2.52,0,0,0,.82-.92,3.15,3.15,0,0,0,.3-1.47,3,3,0,0,0-1-2.52,4.24,4.24,0,0,0-2.62-.75H5v6.28Z"/><path class="cls-1" d="M26.27,18.86a4.05,4.05,0,0,0,2.94,1,4.08,4.08,0,0,0,2.37-.69,3,3,0,0,0,1.21-1.46h4A7.59,7.59,0,0,1,33.84,22a8.59,8.59,0,0,1-4.79,1.29,9.39,9.39,0,0,1-3.52-.63,7.5,7.5,0,0,1-2.67-1.78,8.14,8.14,0,0,1-1.68-2.75,10.15,10.15,0,0,1-.59-3.52,9.79,9.79,0,0,1,.61-3.46,8.12,8.12,0,0,1,1.73-2.77A8.31,8.31,0,0,1,25.61,6.5a8.51,8.51,0,0,1,3.44-.67,7.83,7.83,0,0,1,3.68.82A7.28,7.28,0,0,1,35.3,8.84,8.65,8.65,0,0,1,36.75,12a11.5,11.5,0,0,1,.32,3.68H25.15A4.65,4.65,0,0,0,26.27,18.86Zm5.22-8.68a3.4,3.4,0,0,0-2.57-.92,3.89,3.89,0,0,0-1.81.37,3.63,3.63,0,0,0-1.15.91,3.33,3.33,0,0,0-.61,1.16,5.52,5.52,0,0,0-.2,1.09h7.38A4.41,4.41,0,0,0,31.49,10.18Z"/><rect class="cls-1" x="24.22" y="1.53" width="9.25" height="2.25"/></g></g></svg>