<svg xmlns="http://www.w3.org/2000/svg" viewBox="0 0 233.52 60.11"><defs><style>.cls-1{fill:#fff;}</style></defs><g id="Capa_2" data-name="Capa 2"><g id="Capa_1-2" data-name="Capa 1"><path class="cls-1" d="M32.65,4.85V40.56a4.85,4.85,0,1,1-9.7,0V27H9.7V40.56a4.86,4.86,0,0,1-4.85,4.85A4.9,4.9,0,0,1,0,40.56V4.85A4.9,4.9,0,0,1,4.85,0,4.86,4.86,0,0,1,9.7,4.85V18.41H23V4.85a4.85,4.85,0,1,1,9.7,0Z"/><path class="cls-1" d="M42.46,45.41a4.93,4.93,0,0,1-4.91-4.91V19.27a4.91,4.91,0,1,1,9.82,0V40.5A4.93,4.93,0,0,1,42.46,45.41ZM46.63,8.77A4.2,4.2,0,1,1,42.46,4.6,4.23,4.23,0,0,1,46.63,8.77Z"/><path class="cls-1" d="M70.2,40.5a4.93,4.93,0,0,1-4.91,4.91h-.92C57.13,45.41,52,39.7,52,32.58V9.88a4.91,4.91,0,1,1,9.82,0v4.85h4.48a4.27,4.27,0,1,1,0,8.53H61.79v9.32c0,1.54.8,3,2.58,3h.92A4.93,4.93,0,0,1,70.2,40.5Z"/><path class="cls-1" d="M128.74,22.7A22.74,22.74,0,0,1,106,45.41H95.84a4.85,4.85,0,0,1-4.72-4.91V4.91A4.93,4.93,0,0,1,96,0h10A22.74,22.74,0,0,1,128.74,22.7Zm-9.88,0A12.87,12.87,0,0,0,106,9.82h-5.09V35.59H106A12.88,12.88,0,0,0,118.86,22.7Z"/><path class="cls-1" d="M163.53,19.33V40.81a4.64,4.64,0,0,1-4.61,4.6,4.9,4.9,0,0,1-3.43-1.47,16.27,16.27,0,0,1-7.67,2,15.71,15.71,0,1,1,0-31.42,16,16,0,0,1,7.54,2,4.36,4.36,0,0,1,3.56-1.72A4.64,4.64,0,0,1,163.53,19.33Zm-9.76,10.86a6,6,0,1,0-6,5.95A5.92,5.92,0,0,0,153.77,30.19Z"/><path class="cls-1" d="M186.66,40.5a4.93,4.93,0,0,1-4.91,4.91h-.92c-7.24,0-12.4-5.71-12.4-12.83V9.88a4.91,4.91,0,0,1,9.82,0v4.85h4.48a4.27,4.27,0,1,1,0,8.53h-4.48v9.32c0,1.54.8,3,2.58,3h.92A4.93,4.93,0,0,1,186.66,40.5Z"/><path class="cls-1" d="M217.49,25.75a7.58,7.58,0,0,1-7.57-7.57,7.5,7.5,0,0,1,.36-2.32l.05-.12a15.58,15.58,0,0,0-6.06-1.26,15.71,15.71,0,0,0,0,31.42,16.15,16.15,0,0,0,7.67-2,4.92,4.92,0,0,0,3.43,1.47,4.64,4.64,0,0,0,4.61-4.6V25.32A7.29,7.29,0,0,1,217.49,25.75ZM204.27,36.14a6,6,0,1,1,5.95-5.95A5.91,5.91,0,0,1,204.27,36.14Z"/><path class="cls-1" d="M217.49,11.77a6.41,6.41,0,1,0,6.41,6.41A6.43,6.43,0,0,0,217.49,11.77ZM220,21.11a3.84,3.84,0,1,1-4.22-6.36,3.72,3.72,0,0,1,1.73-.42A3.85,3.85,0,0,1,220,21.11Z"/><rect class="cls-1" x="213.43" y="2.79" width="1.71" height="8.98" transform="translate(2.57 41.16) rotate(-11.04)"/><rect class="cls-1" x="224.54" y="17.33" width="8.98" height="1.71"/><path class="cls-1" d="M21.66,60a.83.83,0,0,1-1.13-.44l-.38-.85H16.86l-.38.85a.86.86,0,0,1-1.13.44.85.85,0,0,1-.43-1.13l2.78-6.23a.94.94,0,0,1,.45-.45,1.05,1.05,0,0,1,.7,0,.92.92,0,0,1,.46.45l2.78,6.23A.86.86,0,0,1,21.66,60Zm-2.28-3-.87-2-.87,2Z"/><path class="cls-1" d="M30.77,56.24A4,4,0,0,1,29.59,59a3.92,3.92,0,0,1-5.59,0,4.1,4.1,0,0,1-1.13-2.85,4,4,0,0,1,6-3.56.87.87,0,0,1,.35,1.17A.86.86,0,0,1,28,54a2.42,2.42,0,0,0-1.11-.29,2.36,2.36,0,0,0-1.68,4,2.15,2.15,0,0,0,1.59.68,2.19,2.19,0,0,0,2.1-1.56H27a.75.75,0,0,1,0-1.5h3A.85.85,0,0,1,30.77,56.24Z"/><path class="cls-1" d="M36,59.2a.86.86,0,0,1-.85.85H32.49a.86.86,0,0,1-.86-.85V52.94a.86.86,0,0,1,.86-.85h2.68a.86.86,0,0,1,.85.85.87.87,0,0,1-.85.87H33.35v1.5h1.72a.77.77,0,0,1,.76.76.75.75,0,0,1-.76.75H33.35v1.51h1.82A.86.86,0,0,1,36,59.2Z"/><path class="cls-1" d="M43.18,52.94v6.25a.88.88,0,0,1-1.51.59,2.92,2.92,0,0,1-.29-.4c-.13-.2-2.63-3.84-2.78-4.05v3.86a.86.86,0,0,1-1.72,0V52.94a.86.86,0,0,1,.86-.85.87.87,0,0,1,.69.36c.18.24,2,2.89,3,4.39v-3.9a.84.84,0,0,1,.85-.85A.86.86,0,0,1,43.18,52.94Z"/><path class="cls-1" d="M47.92,60.11a4,4,0,0,1,0-8.09,4,4,0,0,1,2.47.84.86.86,0,1,1-1,1.36,2.33,2.33,0,1,0,0,3.7.87.87,0,0,1,1.21.16.86.86,0,0,1-.16,1.2A4,4,0,0,1,47.92,60.11Z"/><path class="cls-1" d="M52.43,60.05a.86.86,0,0,1-.85-.85V52.94a.85.85,0,1,1,1.7,0V59.2A.85.85,0,0,1,52.43,60.05Z"/><path class="cls-1" d="M60.86,60a.83.83,0,0,1-1.13-.44l-.38-.85H56.06l-.39.85a.85.85,0,1,1-1.56-.69l2.79-6.23a.94.94,0,0,1,.45-.45,1.05,1.05,0,0,1,.7,0,.86.86,0,0,1,.45.45l2.79,6.23A.87.87,0,0,1,60.86,60Zm-2.28-3-.87-2-.87,2Z"/><path class="cls-1" d="M71.78,56.07a4,4,0,0,1-4,4H66a.85.85,0,0,1-.82-.86V53a.85.85,0,0,1,.86-.86H67.8A4,4,0,0,1,71.78,56.07Zm-1.73,0a2.26,2.26,0,0,0-2.25-2.26h-.89v4.52h.89A2.26,2.26,0,0,0,70.05,56.07Z"/><path class="cls-1" d="M76.93,59.2a.86.86,0,0,1-.85.85H73.4a.86.86,0,0,1-.86-.85V52.94a.85.85,0,0,1,.86-.85h2.68a.86.86,0,0,1,.85.85.87.87,0,0,1-.85.87H74.26v1.5H76a.76.76,0,0,1,.75.76.74.74,0,0,1-.75.75H74.26v1.51h1.82A.86.86,0,0,1,76.93,59.2Z"/><path class="cls-1" d="M88.69,53v6.24a.87.87,0,0,1-1.73,0v-3l-1.56,3.2a.75.75,0,0,1-1.36,0l-1.57-3.2v3a.86.86,0,1,1-1.72,0V53a.86.86,0,0,1,.85-.86,1,1,0,0,1,.89.66c.07.13,1.39,2.86,2.23,4.57L87,52.75a1,1,0,0,1,.88-.66A.86.86,0,0,1,88.69,53Z"/><path class="cls-1" d="M96.27,60a.83.83,0,0,1-1.13-.44l-.38-.85H91.47l-.39.85a.85.85,0,1,1-1.56-.69l2.79-6.23a.9.9,0,0,1,.45-.45,1.05,1.05,0,0,1,.7,0,.94.94,0,0,1,.45.45l2.79,6.23A.87.87,0,0,1,96.27,60ZM94,57l-.88-2-.87,2Z"/><path class="cls-1" d="M102.22,59.92a.83.83,0,0,1-1.17-.29L99.52,57h-.16v2.16a.87.87,0,0,1-.87.86.86.86,0,0,1-.85-.86V53a.85.85,0,0,1,.85-.86h1.67a2.46,2.46,0,0,1,1.18,4.63l1.19,2A.85.85,0,0,1,102.22,59.92Zm-2.06-6.11h-.8V55.3h.8a.75.75,0,1,0,0-1.49Z"/><path class="cls-1" d="M108.17,59.82a.84.84,0,0,1-1.2-.06l-2-2.21V59.2a.86.86,0,0,1-1.71,0V52.94a.86.86,0,0,1,1.71,0v1.61l1.76-2a.86.86,0,0,1,1.3,1.13L106,56.06l2.28,2.55A.86.86,0,0,1,108.17,59.82Z"/><path class="cls-1" d="M113.61,59.2a.86.86,0,0,1-.85.85h-2.68a.86.86,0,0,1-.86-.85V52.94a.85.85,0,0,1,.86-.85h2.68a.86.86,0,0,1,.85.85.87.87,0,0,1-.85.87h-1.82v1.5h1.72a.76.76,0,0,1,.75.76.74.74,0,0,1-.75.75h-1.72v1.51h1.82A.86.86,0,0,1,113.61,59.2Z"/><path class="cls-1" d="M119.31,53a.87.87,0,0,1-.87.86h-.83v5.38a.86.86,0,1,1-1.71,0V53.81h-.83a.86.86,0,1,1,0-1.72h3.37A.86.86,0,0,1,119.31,53Z"/><path class="cls-1" d="M120.81,60.05a.85.85,0,0,1-.85-.85V52.94a.85.85,0,1,1,1.7,0V59.2A.86.86,0,0,1,120.81,60.05Z"/><path class="cls-1" d="M128.87,52.94v6.25a.88.88,0,0,1-1.51.59,2.27,2.27,0,0,1-.29-.4c-.13-.2-2.63-3.84-2.78-4.05v3.86a.86.86,0,0,1-1.72,0V52.94a.86.86,0,0,1,.86-.85.87.87,0,0,1,.69.36c.18.24,2,2.89,3,4.39v-3.9a.86.86,0,0,1,1.72,0Z"/><path class="cls-1" d="M137.52,56.24A4.06,4.06,0,0,1,136.35,59a3.94,3.94,0,0,1-5.6,0,4.1,4.1,0,0,1-1.13-2.85,4,4,0,0,1,6-3.56.87.87,0,0,1,.35,1.17.85.85,0,0,1-1.16.34,2.49,2.49,0,0,0-1.12-.29,2.36,2.36,0,0,0-1.68,4,2.15,2.15,0,0,0,1.59.68,2.19,2.19,0,0,0,2.1-1.56h-2a.75.75,0,0,1,0-1.5h3A.85.85,0,0,1,137.52,56.24Z"/><path class="cls-1" d="M146.68,53.44l-1.84,2.64V59.2a.86.86,0,0,1-.86.85.85.85,0,0,1-.85-.85V56.08l-1.84-2.64a.85.85,0,1,1,1.39-1l1.3,1.86,1.3-1.86a.86.86,0,0,1,1.4,1Z"/><path class="cls-1" d="M155.49,54.55A2.48,2.48,0,0,1,153,57h-.81v2.16a.86.86,0,1,1-1.72,0V53a.85.85,0,0,1,.86-.86H153A2.47,2.47,0,0,1,155.49,54.55Zm-1.72,0a.74.74,0,0,0-.75-.74h-.81V55.3H153A.74.74,0,0,0,153.77,54.55Z"/><path class="cls-1" d="M158.74,60.11a2.65,2.65,0,0,1-2.65-2.65V52.94a.86.86,0,0,1,1.71,0v4.52a.95.95,0,0,0,1.89,0V52.94a.86.86,0,0,1,1.71,0v4.52A2.66,2.66,0,0,1,158.74,60.11Z"/><path class="cls-1" d="M167.2,57.63a2.42,2.42,0,0,1-2.42,2.42h-1.67a.86.86,0,0,1-.85-.85V52.94a.86.86,0,0,1,.85-.85h1.45A2.42,2.42,0,0,1,167,54.51a2.46,2.46,0,0,1-.47,1.42A2.48,2.48,0,0,1,167.2,57.63ZM164,55.21h.59a.7.7,0,1,0,0-1.4H164Zm1.52,2.42a.7.7,0,0,0-.71-.7H164v1.4h.81A.71.71,0,0,0,165.49,57.63Z"/><path class="cls-1" d="M171.55,60.05h-2.69a.86.86,0,0,1-.85-.86V53a.86.86,0,1,1,1.72,0v5.38h1.82a.86.86,0,1,1,0,1.72Z"/><path class="cls-1" d="M173.94,60.05a.86.86,0,0,1-.85-.85V52.94a.85.85,0,0,1,1.7,0V59.2A.86.86,0,0,1,173.94,60.05Z"/><path class="cls-1" d="M179.54,60.11a4,4,0,1,1,0-8.09,4,4,0,0,1,2.46.84.87.87,0,0,1,.16,1.21.86.86,0,0,1-1.2.15,2.33,2.33,0,0,0-3.76,1.85A2.33,2.33,0,0,0,181,57.92a.86.86,0,0,1,1.2.16.85.85,0,0,1-.16,1.2A4,4,0,0,1,179.54,60.11Z"/><path class="cls-1" d="M184.05,60.05a.85.85,0,0,1-.85-.85V52.94a.85.85,0,1,1,1.7,0V59.2A.86.86,0,0,1,184.05,60.05Z"/><path class="cls-1" d="M192.41,56.07a4,4,0,0,1-4,4h-1.79a.85.85,0,0,1-.83-.86V53a.86.86,0,0,1,.86-.86h1.76A4,4,0,0,1,192.41,56.07Zm-1.74,0a2.25,2.25,0,0,0-2.24-2.26h-.9v4.52h.9A2.25,2.25,0,0,0,190.67,56.07Z"/><path class="cls-1" d="M199.82,60a.83.83,0,0,1-1.13-.44l-.37-.85H195l-.38.85a.86.86,0,0,1-1.13.44.85.85,0,0,1-.43-1.13l2.78-6.23a.92.92,0,0,1,.46-.45,1,1,0,0,1,.69,0,.92.92,0,0,1,.46.45l2.78,6.23A.86.86,0,0,1,199.82,60Zm-2.28-3-.87-2-.87,2Z"/><path class="cls-1" d="M207.79,56.07a4,4,0,0,1-4,4H202a.85.85,0,0,1-.83-.86V53a.86.86,0,0,1,.86-.86h1.76A4,4,0,0,1,207.79,56.07Zm-1.73,0a2.26,2.26,0,0,0-2.25-2.26h-.9v4.52h.9A2.26,2.26,0,0,0,206.06,56.07Z"/><path class="cls-1" d="M209.87,59.27a.78.78,0,0,1-.78.78.77.77,0,0,1-.76-.78.76.76,0,0,1,.76-.76A.77.77,0,0,1,209.87,59.27Z"/></g></g></svg>