<svg xmlns="http://www.w3.org/2000/svg" viewBox="0 0 213.73 111.01"><defs><style>.cls-1{fill:#fff;}</style></defs><g id="Capa_2" data-name="Capa 2"><g id="Capa_1-2" data-name="Capa 1"><path class="cls-1" d="M51.52,86.73V84.28q7.27,0,7.28-5.07A9.8,9.8,0,0,0,58.15,76l-7.87-23.5H23.11l-5.77,17q-2.17,6.43-2.17,9.33,0,5.35,6.69,5.5v2.45H0V84.28a12.9,12.9,0,0,0,7.29-3.11Q9.9,78.71,12.57,71L36,1.15h8.71L69.26,74.08q2.16,6.44,4.51,8.31c1.57,1.26,4.08,1.89,7.55,1.89v2.45ZM24.68,47.26H48.55l-12-35.86Z"/><path class="cls-1" d="M211,.85V25.51h-2.47q-3-11.48-9.48-16.91T181.72,3.17q-14.1,0-22.34,10.15t-8.25,27.07q0,18.53,8.7,29.85t22.81,11.31q19.52,0,28.82-18.19l2.19,2A33.16,33.16,0,0,1,200.22,81a39.23,39.23,0,0,1-21.11,5.74,42.22,42.22,0,0,1-20.76-5.28,37.18,37.18,0,0,1-14.73-14.56,43,43,0,0,1-5.18-21.32q0-19.72,12.13-32.67T181.16,0a73.32,73.32,0,0,1,15.71,2.18,38.42,38.42,0,0,0,7.4,1.27,4.52,4.52,0,0,0,4.44-2.6Z"/><path class="cls-1" d="M79.71,84.23s4.16.12,6.56,0,5.53,2.55,5.53,2.55H81.25Z"/><path class="cls-1" d="M145.59,69.48a.88.88,0,0,0-.31.41,22.88,22.88,0,0,1-3.77,6.17,20.11,20.11,0,0,1-5.3,4.9,5.49,5.49,0,0,1-1.88.75c-2.08.36-3.94-1.09-5.41-2.38q-2.77-2.44-9.59-11a60.13,60.13,0,0,0,5.5-11.41,43.72,43.72,0,0,1,3.28-7,13.76,13.76,0,0,1,3-3.35q1.68-1.3,6.33-1.31v-2h-20v2c2,.12,3.3.61,4,1.46s1.11,2.38,1.11,4.57q0,5.87-5.14,14.64-10.64-13-18-19.3Q112.1,39.9,112.1,31A11.71,11.71,0,0,0,108,22a14.32,14.32,0,0,0-10-3.73,16.47,16.47,0,0,0-11.92,4.51,15.24,15.24,0,0,0-4.69,11.5q0,8.12,7.82,15.41A36.19,36.19,0,0,0,77.9,58.9a17,17,0,0,0-4,10.51,15.85,15.85,0,0,0,5.71,12.34,20.24,20.24,0,0,0,13.89,5q11.64,0,20.31-10.52c.55.56,1.39,1.48,2.51,2.75q4.11,4.73,6.84,6.24a11.44,11.44,0,0,0,5.7,1.53,12.36,12.36,0,0,0,7.56-2.44A30.32,30.32,0,0,0,142,78.09c.72-.94,1.39-1.93,2.05-2.92a21.55,21.55,0,0,0,2.35-3.67c.21-.52.53-1.43,0-1.9A.7.7,0,0,0,145.59,69.48ZM87.37,30.4a8.12,8.12,0,0,1,2.57-6.18,9.12,9.12,0,0,1,6.51-2.42,8.65,8.65,0,0,1,6.69,2.81,10.25,10.25,0,0,1,2.57,7.23q0,8.54-8.06,13.2a35.48,35.48,0,0,1-7.47-7.56Q87.38,33.5,87.37,30.4Zm18.1,49.29a14.25,14.25,0,0,1-6.93,1.73q-6.15,0-11.17-5.08t-5-11.23a14.07,14.07,0,0,1,2.42-7.7,17.05,17.05,0,0,1,6.31-5.86A170.94,170.94,0,0,1,112.22,74,26.92,26.92,0,0,1,105.47,79.69Z"/><rect class="cls-1" x="0.09" y="92.51" width="213.56" height="3.19"/><path class="cls-1" d="M7.31,100.06v2.74H7a3.36,3.36,0,0,0-1-1.53,2.41,2.41,0,0,0-1.53-.62,1.79,1.79,0,0,0-1.21.41,1.22,1.22,0,0,0-.5,1,1.31,1.31,0,0,0,.13.57,1.65,1.65,0,0,0,.38.52,11.49,11.49,0,0,0,1.59,1.09,19.39,19.39,0,0,1,1.78,1.17,4.49,4.49,0,0,1,.76.84A3,3,0,0,1,7.92,108a2.73,2.73,0,0,1-1,2.21,3.54,3.54,0,0,1-2.37.82,7.2,7.2,0,0,1-1.78-.27A4,4,0,0,0,2,110.6a.57.57,0,0,0-.53.34h-.3V107.8h.3a3.48,3.48,0,0,0,1,1.92,2.55,2.55,0,0,0,1.82.7A2.18,2.18,0,0,0,5.66,110a1.27,1.27,0,0,0,.54-1.06,1.62,1.62,0,0,0-.34-1A7.62,7.62,0,0,0,4,106.59a10.34,10.34,0,0,1-1.84-1.28,3.09,3.09,0,0,1-.68-1,3.15,3.15,0,0,1-.23-1.19,2.86,2.86,0,0,1,.91-2.19,3.34,3.34,0,0,1,2.36-.85,5.24,5.24,0,0,1,1.07.14,4.22,4.22,0,0,0,.89.14.79.79,0,0,0,.53-.28Z"/><path class="cls-1" d="M18.35,103.92h.34v3.22h-.34a1.34,1.34,0,0,0-1.44-1.33H15.07v3.06a1.29,1.29,0,0,0,.33,1,1.65,1.65,0,0,0,1.1.28h.6c1,0,1.75-.64,2.19-1.94h.31l-.2,2.53H11.47v-.3a1.83,1.83,0,0,0,1-.48,2,2,0,0,0,.26-1.19v-6.7a1.47,1.47,0,0,0-.27-1,2,2,0,0,0-1-.43v-.3h7.81v2.31H19a2.85,2.85,0,0,0-.65-1.37,1.84,1.84,0,0,0-1.24-.35h-2v4.3h1.84a1.4,1.4,0,0,0,1-.3A1.8,1.8,0,0,0,18.35,103.92Z"/><path class="cls-1" d="M32.65,100.33v2.92h-.32a4.16,4.16,0,0,0-1.43-1.9,3.59,3.59,0,0,0-2.15-.7A2.73,2.73,0,0,0,26.31,102a7,7,0,0,0-.87,3.8,5.84,5.84,0,0,0,.86,3.44,2.87,2.87,0,0,0,2.49,1.18c1,0,1.56-.37,1.56-1.1v-1.55a1.18,1.18,0,0,0-1.07-1.28v-.3h4.39v.3a1.32,1.32,0,0,0-.8.5,2,2,0,0,0-.22,1.07v2.21a9.58,9.58,0,0,1-4,.74,6.21,6.21,0,0,1-2.93-.68,5,5,0,0,1-2-2,5.47,5.47,0,0,1-.73-2.76,5.34,5.34,0,0,1,1.61-4,5.54,5.54,0,0,1,4.05-1.58,6.09,6.09,0,0,1,2.11.41,3,3,0,0,0,.87.21,1.09,1.09,0,0,0,.75-.35Z"/><path class="cls-1" d="M45,110.74v-1.39a6.8,6.8,0,0,1-1.66,1.31,3.74,3.74,0,0,1-1.7.35,3.56,3.56,0,0,1-2.6-.94,3.31,3.31,0,0,1-1-2.52v-5.46a1.43,1.43,0,0,0-.26-1,2.23,2.23,0,0,0-1.06-.47v-.3h4.94v.3a2.14,2.14,0,0,0-1.06.47,1.64,1.64,0,0,0-.26,1.08V108a2.06,2.06,0,0,0,.52,1.5,1.86,1.86,0,0,0,1.43.55A3.87,3.87,0,0,0,45,108.6v-6.51a1.44,1.44,0,0,0-.25-1,2.18,2.18,0,0,0-1.07-.48v-.3h4.92v.3a2,2,0,0,0-1,.46,1.9,1.9,0,0,0-.27,1.21V109a1.46,1.46,0,0,0,.25,1,2,2,0,0,0,1.05.48v.3Z"/><path class="cls-1" d="M51.81,110.74v-.3c.89-.07,1.33-.51,1.33-1.33v-7a1.42,1.42,0,0,0-.28-1,2,2,0,0,0-1-.43v-.3h5a5.55,5.55,0,0,1,3,.68,2.2,2.2,0,0,1,1,1.93,2.32,2.32,0,0,1-.54,1.54,3.08,3.08,0,0,1-1.56.94v0a1.7,1.7,0,0,1,.79.6,15,15,0,0,1,1.23,2A11.09,11.09,0,0,0,61.89,110a1.61,1.61,0,0,0,1,.49v.3h-3a13.92,13.92,0,0,1-1.51-2.53,14,14,0,0,0-1-1.68,2,2,0,0,0-.64-.58,3.33,3.33,0,0,0-1.34-.17V109a1.43,1.43,0,0,0,.31,1,1.68,1.68,0,0,0,1,.44v.3Zm4.33-9.82h-.71v4.27h.51a2.58,2.58,0,0,0,1.81-.53,2.23,2.23,0,0,0,.57-1.69C58.32,101.6,57.59,100.92,56.14,100.92Z"/><path class="cls-1" d="M77.32,105.54a5.22,5.22,0,0,1-1.6,3.93,6.17,6.17,0,0,1-8.16,0,5.65,5.65,0,0,1,0-7.87,6.16,6.16,0,0,1,8.15,0A5.29,5.29,0,0,1,77.32,105.54Zm-2.5.07a6.89,6.89,0,0,0-.81-3.69,2.64,2.64,0,0,0-2.38-1.27,2.6,2.6,0,0,0-2.35,1.27,6.92,6.92,0,0,0-.81,3.71,6.52,6.52,0,0,0,.81,3.53,2.64,2.64,0,0,0,2.35,1.26A2.69,2.69,0,0,0,74,109.17,6.37,6.37,0,0,0,74.82,105.61Z"/><path class="cls-1" d="M87.08,100.06v2.74h-.31a3.36,3.36,0,0,0-1-1.53,2.41,2.41,0,0,0-1.54-.62,1.83,1.83,0,0,0-1.21.41,1.25,1.25,0,0,0-.5,1,1.33,1.33,0,0,0,.14.57,1.78,1.78,0,0,0,.37.52,12.68,12.68,0,0,0,1.6,1.09,19.39,19.39,0,0,1,1.78,1.17,4.49,4.49,0,0,1,.76.84,3,3,0,0,1,.55,1.73,2.72,2.72,0,0,1-1,2.21,3.58,3.58,0,0,1-2.37.82,7.27,7.27,0,0,1-1.79-.27,3.89,3.89,0,0,0-.76-.14.57.57,0,0,0-.53.34H81V107.8h.31a3.48,3.48,0,0,0,1,1.92,2.55,2.55,0,0,0,1.82.7,2.18,2.18,0,0,0,1.38-.42,1.27,1.27,0,0,0,.54-1.06,1.57,1.57,0,0,0-.35-1,7.29,7.29,0,0,0-1.86-1.37,10.34,10.34,0,0,1-1.84-1.28,3.09,3.09,0,0,1-.68-1A3,3,0,0,1,81,103.1a2.86,2.86,0,0,1,.91-2.19,3.32,3.32,0,0,1,2.36-.85,5.24,5.24,0,0,1,1.07.14,4.15,4.15,0,0,0,.88.14.79.79,0,0,0,.54-.28Z"/><path class="cls-1" d="M103.84,101.75l-2.46,3.5V109a1.49,1.49,0,0,0,.28,1,1.87,1.87,0,0,0,1,.45v.3H97.76v-.3a1.31,1.31,0,0,0,1.33-1.53v-3l-2.71-4.15a3.26,3.26,0,0,0-.7-.82,1.71,1.71,0,0,0-.78-.27v-.3h4.75v.3q-.75,0-.75.51a1.49,1.49,0,0,0,.29.75l1.8,2.79,1.58-2.29a1.76,1.76,0,0,0,.38-1c0-.4-.27-.67-.8-.8v-.3h3.22v.3A2.24,2.24,0,0,0,103.84,101.75Z"/><path class="cls-1" d="M120.89,100.06v2.74h-.31a3.36,3.36,0,0,0-1-1.53,2.41,2.41,0,0,0-1.53-.62,1.79,1.79,0,0,0-1.21.41,1.22,1.22,0,0,0-.5,1,1.31,1.31,0,0,0,.13.57,1.65,1.65,0,0,0,.38.52,11.49,11.49,0,0,0,1.59,1.09,19.39,19.39,0,0,1,1.78,1.17,4.49,4.49,0,0,1,.76.84,3,3,0,0,1,.56,1.73,2.73,2.73,0,0,1-1,2.21,3.54,3.54,0,0,1-2.37.82,7.2,7.2,0,0,1-1.78-.27,4,4,0,0,0-.77-.14.57.57,0,0,0-.53.34h-.3V107.8h.3a3.48,3.48,0,0,0,1,1.92,2.55,2.55,0,0,0,1.82.7,2.18,2.18,0,0,0,1.38-.42,1.27,1.27,0,0,0,.54-1.06,1.62,1.62,0,0,0-.34-1,7.62,7.62,0,0,0-1.87-1.37,10.34,10.34,0,0,1-1.84-1.28,3.09,3.09,0,0,1-.68-1,3.15,3.15,0,0,1-.23-1.19,2.86,2.86,0,0,1,.91-2.19,3.34,3.34,0,0,1,2.36-.85,5.24,5.24,0,0,1,1.07.14,4.22,4.22,0,0,0,.89.14.79.79,0,0,0,.53-.28Z"/><path class="cls-1" d="M131.93,103.92h.34v3.22h-.34a1.34,1.34,0,0,0-1.44-1.33h-1.84v3.06a1.33,1.33,0,0,0,.32,1,1.7,1.7,0,0,0,1.11.28h.6c1,0,1.75-.64,2.19-1.94h.3l-.19,2.53h-7.93v-.3a1.83,1.83,0,0,0,1-.48,2,2,0,0,0,.26-1.19v-6.7a1.47,1.47,0,0,0-.27-1,2,2,0,0,0-1-.43v-.3h7.81v2.31h-.3a2.85,2.85,0,0,0-.65-1.37,1.84,1.84,0,0,0-1.24-.35h-2v4.3h1.84a1.4,1.4,0,0,0,1-.3A1.87,1.87,0,0,0,131.93,103.92Z"/><path class="cls-1" d="M136.26,110.74v-.3c.88-.07,1.32-.51,1.32-1.33v-7a1.37,1.37,0,0,0-.28-1,2,2,0,0,0-1-.43v-.3h5a5.55,5.55,0,0,1,3,.68,2.18,2.18,0,0,1,1,1.93,2.32,2.32,0,0,1-.54,1.54,3,3,0,0,1-1.56.94v0a1.7,1.7,0,0,1,.79.6,15,15,0,0,1,1.23,2,11.09,11.09,0,0,0,1.16,1.86,1.61,1.61,0,0,0,1,.49v.3h-3a13.92,13.92,0,0,1-1.51-2.53,14,14,0,0,0-1-1.68,2,2,0,0,0-.64-.58,3.33,3.33,0,0,0-1.34-.17V109a1.43,1.43,0,0,0,.31,1,1.68,1.68,0,0,0,1,.44v.3Zm4.32-9.82h-.71v4.27h.51a2.56,2.56,0,0,0,1.81-.53,2.23,2.23,0,0,0,.57-1.69C142.76,101.6,142,100.92,140.58,100.92Z"/><path class="cls-1" d="M158.17,100.33v.3a1.92,1.92,0,0,0-1,.53,4.25,4.25,0,0,0-.78,1.39L153.15,111h-.34l-3.29-8.35a5.64,5.64,0,0,0-.8-1.53,1.71,1.71,0,0,0-1-.5v-.3h4.74v.3c-.58.1-.87.35-.87.76a2.12,2.12,0,0,0,.18.73l2.07,5.29,1.86-5a2.3,2.3,0,0,0,.16-.78c0-.55-.37-.88-1.11-1v-.3Z"/><path class="cls-1" d="M166.34,100.33v.3a2,2,0,0,0-1,.47,1.84,1.84,0,0,0-.27,1.2V109a1.46,1.46,0,0,0,.25,1,2.13,2.13,0,0,0,1.05.48v.3h-4.92v-.3a3,3,0,0,0,.83-.31.88.88,0,0,0,.38-.41,2.65,2.65,0,0,0,.11-1v-6.66a1.49,1.49,0,0,0-.25-1,2.28,2.28,0,0,0-1.07-.47v-.3Z"/><path class="cls-1" d="M179.65,104h-.29a4.66,4.66,0,0,0-1.29-2.44,3.18,3.18,0,0,0-2.26-.87,2.69,2.69,0,0,0-2.31,1.22,5.68,5.68,0,0,0-.85,3.3,5.57,5.57,0,0,0,1,3.56A3.29,3.29,0,0,0,176.4,110a3.72,3.72,0,0,0,1.74-.4,5.68,5.68,0,0,0,1.61-1.26v.55a4.93,4.93,0,0,1-4.22,2.12,5.25,5.25,0,0,1-3.88-1.48,5.18,5.18,0,0,1-1.5-3.85,5.52,5.52,0,0,1,5.63-5.62,6.81,6.81,0,0,1,2.22.43,2.51,2.51,0,0,0,.72.19c.25,0,.47-.18.64-.54h.29Z"/><path class="cls-1" d="M188.26,100.33v.3a2,2,0,0,0-1,.47,1.84,1.84,0,0,0-.27,1.2V109a1.52,1.52,0,0,0,.25,1,2.13,2.13,0,0,0,1.06.48v.3h-4.92v-.3a3.16,3.16,0,0,0,.83-.31.88.88,0,0,0,.38-.41,2.9,2.9,0,0,0,.11-1v-6.66a1.49,1.49,0,0,0-.26-1,2.28,2.28,0,0,0-1.06-.47v-.3Z"/><path class="cls-1" d="M203.36,105.54a5.19,5.19,0,0,1-1.6,3.93,6.16,6.16,0,0,1-8.15,0,5.19,5.19,0,0,1-1.6-3.93,5.29,5.29,0,0,1,1.6-3.94,6.16,6.16,0,0,1,8.15,0A5.25,5.25,0,0,1,203.36,105.54Zm-2.49.07a6.8,6.8,0,0,0-.82-3.69,2.84,2.84,0,0,0-4.73,0,6.92,6.92,0,0,0-.81,3.71,6.43,6.43,0,0,0,.82,3.53,2.62,2.62,0,0,0,2.35,1.26,2.67,2.67,0,0,0,2.34-1.25A6.37,6.37,0,0,0,200.87,105.61Z"/><path class="cls-1" d="M213.12,100.06v2.74h-.31a3.36,3.36,0,0,0-1-1.53,2.41,2.41,0,0,0-1.53-.62,1.79,1.79,0,0,0-1.21.41,1.22,1.22,0,0,0-.5,1,1.31,1.31,0,0,0,.13.57,1.65,1.65,0,0,0,.38.52,11.49,11.49,0,0,0,1.59,1.09,19.39,19.39,0,0,1,1.78,1.17,4.49,4.49,0,0,1,.76.84,3,3,0,0,1,.56,1.73,2.73,2.73,0,0,1-1,2.21,3.54,3.54,0,0,1-2.37.82,7.2,7.2,0,0,1-1.78-.27,4,4,0,0,0-.77-.14.57.57,0,0,0-.53.34H207V107.8h.3a3.43,3.43,0,0,0,1,1.92,2.51,2.51,0,0,0,1.81.7,2.18,2.18,0,0,0,1.38-.42,1.27,1.27,0,0,0,.54-1.06,1.62,1.62,0,0,0-.34-1,7.62,7.62,0,0,0-1.87-1.37,10.75,10.75,0,0,1-1.84-1.28,3.09,3.09,0,0,1-.68-1,3.15,3.15,0,0,1-.23-1.19,2.83,2.83,0,0,1,.92-2.19,3.3,3.3,0,0,1,2.35-.85,5.24,5.24,0,0,1,1.07.14,4.22,4.22,0,0,0,.89.14.79.79,0,0,0,.53-.28Z"/></g></g></svg>