<svg xmlns="http://www.w3.org/2000/svg" viewBox="0 0 58.4 77.83"><defs><style>.cls-1{fill:#65aa98;}</style></defs><g id="Capa_2" data-name="Capa 2"><g id="formas"><path class="cls-1" d="M31.79,0c1.7.36,3.44.53,5.12,1A29.28,29.28,0,0,1,51.06,9.86a28.92,28.92,0,0,1,6,27.8,63.4,63.4,0,0,1-6.46,14.2,127.16,127.16,0,0,1-12.9,17.79c-2.1,2.47-4.26,4.88-6.55,7.17-1.34,1.34-2.63,1.35-3.95,0A143,143,0,0,1,11.7,58,81.73,81.73,0,0,1,2.62,41.47,33,33,0,0,1,0,28,29.23,29.23,0,0,1,12.42,5.3,28.53,28.53,0,0,1,25,.29C25.53.21,26.08.1,26.62,0Zm12,29.16c-.2-8.12-6.27-14.47-14.52-14.5A14.27,14.27,0,0,0,14.7,29.17a14.27,14.27,0,0,0,14.47,14.5C37.32,43.7,43.55,37.43,43.76,29.16Z"/></g></g></svg>